<mxfile host="65bd71144e">
    <diagram id="HIP3nbAZw_EuaXWnEj3U" name="Page-1">
        <mxGraphModel dx="702" dy="536" grid="1" gridSize="10" guides="1" tooltips="1" connect="1" arrows="1" fold="1" page="1" pageScale="1" pageWidth="850" pageHeight="1100" math="0" shadow="0">
            <root>
                <mxCell id="0"/>
                <mxCell id="1" parent="0"/>
                <mxCell id="7" value="http://ics2o.mths.ca" style="swimlane;whiteSpace=wrap;html=1;" parent="1" vertex="1">
                    <mxGeometry x="40" y="40" width="760" height="480" as="geometry"/>
                </mxCell>
                <mxCell id="15" value="calculate volume" style="rounded=1;whiteSpace=wrap;html=1;fontSize=20;" vertex="1" parent="7">
                    <mxGeometry x="100" y="390" width="130" height="70" as="geometry"/>
                </mxCell>
                <mxCell id="13" value="" style="rounded=1;whiteSpace=wrap;html=1;fontSize=39;" vertex="1" parent="7">
                    <mxGeometry x="90" y="300" width="140" height="40" as="geometry"/>
                </mxCell>
                <mxCell id="12" value="" style="rounded=1;whiteSpace=wrap;html=1;fontSize=39;" vertex="1" parent="7">
                    <mxGeometry x="90" y="240" width="130" height="40" as="geometry"/>
                </mxCell>
                <mxCell id="11" value="" style="rounded=1;whiteSpace=wrap;html=1;fontSize=39;" vertex="1" parent="7">
                    <mxGeometry x="80" y="170" width="130" height="40" as="geometry"/>
                </mxCell>
                <mxCell id="9" value="Volume of a pyrmaid" style="text;html=1;align=center;verticalAlign=middle;resizable=0;points=[];autosize=1;strokeColor=none;fillColor=none;fontSize=39;" vertex="1" parent="7">
                    <mxGeometry x="15" y="50" width="380" height="60" as="geometry"/>
                </mxCell>
                <mxCell id="17" value="mm" style="text;html=1;align=center;verticalAlign=middle;resizable=0;points=[];autosize=1;strokeColor=none;fillColor=none;fontSize=20;" vertex="1" parent="7">
                    <mxGeometry x="220" y="170" width="60" height="40" as="geometry"/>
                </mxCell>
                <mxCell id="18" value="mm" style="text;html=1;align=center;verticalAlign=middle;resizable=0;points=[];autosize=1;strokeColor=none;fillColor=none;fontSize=20;" vertex="1" parent="7">
                    <mxGeometry x="220" y="240" width="60" height="40" as="geometry"/>
                </mxCell>
                <mxCell id="14" value="mm" style="text;html=1;align=center;verticalAlign=middle;resizable=0;points=[];autosize=1;strokeColor=none;fillColor=none;fontSize=20;" vertex="1" parent="7">
                    <mxGeometry x="220" y="300" width="60" height="40" as="geometry"/>
                </mxCell>
                <mxCell id="24" value="height" style="text;html=1;align=center;verticalAlign=middle;resizable=0;points=[];autosize=1;strokeColor=none;fillColor=none;" vertex="1" parent="7">
                    <mxGeometry x="15" y="310" width="60" height="30" as="geometry"/>
                </mxCell>
                <mxCell id="25" value="" style="shape=image;verticalLabelPosition=bottom;labelBackgroundColor=default;verticalAlign=top;aspect=fixed;imageAspect=0;image=data:image/jpeg,/9j/4AAQSkZJRgABAgAAZABkAAD/7AARRHVja3kAAQAEAAAAZAAA/+4AJkFkb2JlAGTAAAAAAQMAFQQDBgoNAAAltwAAabAAAJEHAAC4+//bAIQAAQEBAQEBAQEBAQEBAQEBAQEBAQEBAQEBAQEBAQEBAQEBAQEBAQEBAQEBAQICAgICAgICAgICAwMDAwMDAwMDAwEBAQEBAQECAQECAgIBAgIDAwMDAwMDAwMDAwMDAwMDAwMDAwMDAwMDAwMDAwMDAwMDAwMDAwMDAwMDAwMDAwMD/8IAEQgCKwJYAwERAAIRAQMRAf/EASoAAQACAgMBAQEAAAAAAAAAAAAICQYHBAUKAwIBAQEAAgMBAQEAAAAAAAAAAAAAAQUCBAYDBwgQAAAFAwIFAgYBAwMFAQAAAAIDBAUGAAEHQAgwUBESEyAyEGAxMxQkF4AVFiEjN3AiNDYYOBEAAQMCAwQEBQ4JBwkGBwAAAgEDBBEFIRIGADEiE0EjFAdRYTIkFRAgMEBQcYGRQlJiclMWoTNDk9M0pCU3YIKSomNzw7HBg0RUdIR2F4DRsqNklHDCtDW1JggSAAEBBgIHBgUDBAMAAAAAAAEAQFARMQISITIwYEFhIgMTECBxgSMzgJFCYhRRodGxUgQkweHiEwEAAQMCAwcFAQEBAQAAAAABEQAhMUFRQGFxECAwUIGRoWDwscHR4YDxcP/aAAwDAQACEQMRAAABv8AAAAAAAAAAAAAAAAAAAAAAAAAAAAAAAAAAAAAAAAAAAAAAAAAAAAAAAAAAAAAAAAAAAAAAAAAAAAAAAAAAAPifYHCOaAAAAAAAAAAAAAAAAAAAAAAAAAAAAUWG5zMSxk5Z8jBjYho4kCYqYOcg2SROJhmiyvYt9AAAAAAAAAAAAAAAAAAAAANflMBhZdDyn0HXVZfVj998g2Ea+L7gAAef0kwd+apMoJJEQSxoqXJXETDuiVhqM55l5skhYXtAAAAAAAAAAAAAAAAAAAAAGIlaptY5vyT9GY3o2uYfZ/zB+8sROYAAFMxcyCrM0sT2BDI5R9j+GflgBVId4bFOGRtL1gAAAAAAAAAAAAAAAAAAAAAAUtG7DETojqS2MzcAA4RzQV+m6CSZ/T+GKmSAHNOCf05phBlRzQAAAAAAAAAAAAAAAAAAAAAAAAAAACvc0QDhHNAAAAAAJBk/AAAAAAAAAAAAAAAAAAAAAAAAAAAAAAAAAAAAAAAAAAAAAAAAAAAAAAAAAAAAAAAAAAAAAAAAAAAAAAAAAAAAAAAAAAAAAAAAAAAAAAAAAAAAAAAAAAAAAAAAAAAAAAAAAAAAAAAAAAAAAAAAAAAAAAAAAAAAAAagPMz6a/qq89juwAAAAAAAAAAAAAAAAAAAAAAAAAAAAAAAAAAD8HmJ3aaNVlz9i1F2t/GPoAAAAAAAAAAAAAAAAAAAAAAAAAAAAAAAAAABS9n44t2HyiKVde7Q0rm2iq6eX4AAAAAAAAAAAAAAAAAAAAAAAAAAAAAAAAABFspD6X53Z7bcvVrTdbfPMee+l671B61l2YAAAAAAAAAAAAAAAAAAAAAAAAAAAAAAAAB055frPnLuOr+Y6P8ALZhPUdRdRKKnl7xRou2vajMAAAAAAAAAAAAAAAAAAAAAAAAAAAAAAAADz/e2pKvs/kcjvbUiPr7urqrpbLZZsijLQu7lKvppTgAAAAAAAAAAAAAAAAAAAAAAAAAAAAAAAEA0Vs9X8xtatOcEGNawzas6KWUNszGPRPn9pew9Q+vYcoAAAAAAAAAAAAAAAAAAAAAAAAAAAAAAAwA80VzyN53TfO/sCunUs5e11/m0N+zAhR5bWhaLtLv4zAAAAAAAAAAAAAAAAAAAAAAAAAAAAAAA81ezW2bdn8k2tn5AVd6VtZ3oXmExMmZxAoer728Cs6SR4AAAAAAAAAAAAAAAAAAAAAAAAAAAAABU3OGkuw+U2E71MAKjNC6uh0rfR8ZScnEDFYmhCl7H1Ba+/wDUAAAAAAAAAAAAAAAAAAAAAAAAAAAAA0Iefm/4W7noOHAApprr2+7UtIzRlJucQBA7x29f0faXPxkAAAAAAAAAAAAAAAAAAAAAAAAAAAAOKeX3epbmew+U5XOIAFNdZ0F92tYxjjKTk4gAUGV1/fTW9FvgAAAAAAAAAAAAAAAAAAAAAAAAAAAAoxz8dndn8jlxs14AApxq+jvo196MkZSbnEADCYmiik7P08+G7+gAAAAAAAAAAAAAAAAAAAAAAAAAACHBTz03zm4W55MAACnip6a+Hx243RMh5cpAAFePhufOk7O4CMgAAAAAAAAAAAAAAAAAAAAAAAAABjJ5grTm7y+q+Y9hIAACn2n6q9zz99IROwpZagAAef6t6D0E13Q7mAAAAAAAAAAAAAAAAAAAAAAAAAAPOr7ak7Oz+Q729tYAAAVB0vW3rY+ms4n8Gz5gAAa7jKkej7P01eO4AAAAAAAAAAAAAAAAAAAAAAAAAK2UQf6z5fZ9Z88AAABUTSdhehE4unWkN5zAAAFavhu55R9na4kAAAAAAAAAAAAAAAAAAAAAAAAaoPN3dcfej0vz39AAAA6yJq1pOwu3OOmOcTJScQAAB58azovRRX3+1AAAAAAAAAAAAAAAAAAAAAAAAfk8x+1W2z9l8k2Hn5AAAAa9w9IMU3W3BgjHGUnJxAAAGq4ypro+09K3jtgAAAAAAAAAAAAAAAAAAAAAACmqcOj7H5POndqAAAABo7y2I91HU2ngjJGUm5xAAAAq219/flJ2NnaQAAAAAAAAAAAAAAAAAAAAABGYom6DhLqr/iAAAAAIweO3j1T01jQIyRlJucQAAAPyeeer6T0jaF7sIAAAAAAAAAAAAAAAAAAAAAHWHlz3qS7nsPlPfTAAAAAEMdfe2FV9HOYEZIyk3OIAAAA05jnUdR9p6QvLaAAAAAAAAAAAAAAAAAAAAAFA2fjJTs/kUndnQAAAAAEAtWxlNW9BLEEZ4ykpMfRAAAAAqb1rCW9L2FjaQAAAAAAAAAAAAAAAAAAABBIq26f5xbdccoAAAAABWnp2lhNfe79BoeJ2rLI0AAAAD5nnhq+m9Lmhd5oAAAAAAAAAAAAAAAAAAADBjzH2nNXs9X8y5AAAAAABVLo3Ftmjc7IBqmJ7CWxkAAAAAaJxzq4ou19FfnsgAAAAAAAAAAAAAAAAAADzZe2nZJ2nyHcPrrgAAAAACnbQu7z9K27QGGpweG6pgAAAAAU/6tlPKm66fiQAAAAAAAAAAAAAAAAABVQiN/W/LrH7LnwAAAAAAKaa6+vw1LMDgJ0FCRkwAAAAAOOeeOq6f01aN1lAAAAAAAAAAAAAAAAAANHnneu+OvJ6T58AAAAAAAKbqzob69awAEY4yk5OIAAAAAEdMfSuai7b0JefuAAAAAAAAAAAAAAAAB8Dy77VZcp2XyTM8/MAAAAAAAU51XSXzeG6AIyRlJucQAAAAABTTq2dktN103wAAAAAAAAAAAAAAAAUeThmPZfJplblSAAAAAAABTzUdRfB5bIAjHGUnJxAAAAAAHAPPTU9T6dtK470AAAAAAAAAAAAAAAERiljoeCuYvuKAAAAAAAAFQFN1d7OHsAIyRlJucQAAAAAAIv4esFKLtb+cPcAAAAAAAAAAAAAADHjy6b9Heh1/wAq7SYAAAAAAAAFQtL116mOYAjJGUmpj+oAAAAAAApS1LW1en6yYgAAAAAAAAAAAAAAPO9n4TU7T5FIXY0QAAAAAAAB+CpGj7G8sAEfYndMu5QAAAAAAB1J58qjq/T9p23ZgAAAAAAAAAAAAArmK/eo+bWp2/LAAAAAAAAAYtjlXHS9fc+ADUETkcs8QAAAAAAAIk4e0RqLtb3cPYAAAAAAAAAAAADWR5pLXmL3eq+afsAAAAAAAAA1P5+0Rqfq7awAYGnG4bgmAAAAAAAAKPNO2uHqOrlUAAAAAAAAAAAAfw8x3vpWudn8i2d664AAAAAAAAAjx5bOqajqLNwAdMnSsJBzAAAAAAAAHQnn/p+s9QGpa8wAAAAAAAAAAAFPKMA675ZP2xoQAAAAAAAAAIleG5zarpbAgAExkiZNziAAAAAAAAIYefvHyi7W8DH1AAAAAAAAAAAjkUD3fG3e9J8/AAAAAAAAAAEG9bf3hWdFM4H5TiJr+Gi0yeRsSX6QAAAAAAABRTpXF2NT1MkwAAAAAAAAADrzy2bdXdt2XyTJcsAAAAAAAAAAPwVt6llv+t6DbqesievjLvDLYnuU4JMYxOPdTjslG15c5AAAAAAAxdNClN1vp61bP7gAAAAAAAAAoRnDfHZfJZXblUAAAAAAAB8TEoYaY7E9dGfCjKBmnbWTV93u9IAAA/hiKMEmOdOOazG4ZjI0AAAAACC3nsa1ou1uhx9AAAAAAAAAIPlSnRcDcHe8WAAAAABxTEIYYdDE9fGfEjLvIzyKMuySBVrpW1uOlbZWAAAAADpjXMx8JxyacduTGwD+oAAAAoX0bq9iq6ffwAAAAAAABhx5fLCivg675VzJAAADgmHQw06SMuujL4Rn38ZZFGXOSAAAKlNC5u51LP6AAAAAAAHFNfIxvKO8nHaDHasuWgAAYWmiql6/0661j+gAAAAAAAebf08LEuz+Q7u2NIAdYYZDDjqIy66M/wA45ZAyyKMuUkAAAAACpWuvLvNawAAAAAAAAA/hhZgs49jOOdTG4pjv0ACvvy2Ovou2uCjMAAAAAACroiP1PzWxy25fDIYgdTjn18ZfuMshjPIGXIAAAAAAAABU1W392+vugAAAAAAAAAAdAa5mPnOOVTjuCYzs/qKB9C7v+q+m3QAAAAAAYkeMfYr7jOr+Yb299TIoy79l9QAAAAAAAAAACqCr6G7Hx2wAAAAAAAAAAABwjXSOgmO9yx7VFTVL1/pv17AAAAAAARvKyCHm1W8Sy56adlz8ntus+4AAAAAAAAAAKpKnpLrfPYAAAAAAAAAAAAAGCET4ygr47mHalp6ldK4zwAAAAAAAGtStcgX76Ov7Ln5WWXPzB3ajvJgAAAAAAAACqqo6e6fD1AAAAAAAAAAAGoSJ2OcY/De7nX3d1+G9N/x3JwRlmYAAAAAAAAAB0hX8V0eutpGy5/d1lz8196kz/LEAAAAAAAVYU3VXQxkAAAAAAAAB8TQhEfz9tDeG9lXhuyO196cXltTMT24AAAAAAAAAAAAAPwQ7K0s/GNljQ5BZc/Nqwot35+X9AAAAAODE1o03V3HAAAAAAAHWkaSI3ls6y8N3Ntfelb4b05vPYlSfcAAAAAAAAAAAAAAAAAGiis7Lzh5v0mP2XPzGsaCTXrr8wAAAGD45wqp+ptfAAAAAMYItRMRfHb6Hw3dh+G9MXX3p1Y+u/QAAAAAAAAAAAAAAAAAAAAAYSVxzjA/dp9X2XPyZsuflx76eSAAGnfP20HU9NZgAAAa7In45RT8d37+G7tbX3pr+G7OmM9nAAAAAAAAAAAAAAAAAAAAAAAAAHXkEEV5bdXoez57allz8ydmv2UCOfjs45V9HYCD+GmCJeHpG3w3e+8N7e3hvTf8ADbm4yyoAAAAAAAAAAAAAAAAAAAAAAAAAAAAAiqVwbNfGGy5762XP5T6a2RVvQcjz99I+G7l2vvSX8N6cnlszDT2IAAAAAAAAAAAAAAAAAAAAAAAAAAAAAAAANRlaPprf2Mp0Ye8nT6AAAAAAAAAAAAAAAAAAAAAAAAAAAAAAAAAAAAAAAAAAAAAAAAAAAAAAAAAAAAAAAAAAAAAAAAAAAAAAAAAAAAAAAAAAAAAAAAAAAAAAAAAAAAAAAAAAAAAAAAAAAAAAAAAAAAAAAAAAAAAAAAAAAAAAAAAAAAAAAAAAAAAAAAAAAAAAAAAAAAAAAAAAAAAAAAAAAAAAAAAAAAAA/9oACAEBAAEFAv8ApP5C7D+AVKcR/OclJJHN9yp22iVEBwRkWZOEhQu7S6DXuCBqRmubaQ3Os6hbGgMVpCUpeWMYHLvrX99Y7LWbIcDkTg/z2ERVQjWJHBK9QKFOGYKFk/HAHOGivfeNyuWf+rbVZaviZKKSu8/3Ez2S/wCPM2O3wmQsk9wfi9lzFm1hiGKS9xuaYHOMaerJMxJge6w7dUAwvA0DmQZTFRCxLua3SvC59FmNpRsGAsI4DhkngeR4tA32Gvo9lClq2iSJ1kGJnCDFZC3Z7jsSw3HcOiO3jHzrGtpatUgOmX/7J3QSR/KQt217DKJlwnFAwfc/yuQJDl7CRt/PlOEnvF6xJMZbE5pJHlmhE5ZHOcQqRv2WswQiRS5+3DwiRZBxv6lZZl96Hw3VRZYriGBDFeXsq59/4bwF/wAN7wE7l/aP5vwX/btlgRBxbDrX/wDsjd5/w3FLXDF9rpZhc/mNr/8A2RuXhkjeGxv3dYkUM+FJCulu57lx7pldOWW7NRg1C/I61PeVTlzgsle0AcYxlUJdHPT+Mn/I+G5qXCimJcPQYGO8dmFlnFllllFmFlnFtkeYGQRCZOlCFMnCeoTJ1ZVFJkycV0ycR9XjMcE4hTJwn85yNkLMMckv8wbjq/mDcdR+V9wqm38wbjq/mDcdX8wbjq/mDcdX8wbjq/mDcdX8wbjq/mDcdX8wbjq/mDcdX8wbjq/mDcdX8wbjqxpP8uyaRf0eTuas2PYtGtymRGzIra4oXhv+RxCCAOW5u45/yRjyAgyILahlFSzr/kfdXmAxnRYyx2DHEB23/wC0/bm8bq2xdhLKaPK0K+Rcv5NbsVQ3BcGcpe/z4/8AFg+Cybpm1wQJHRC1rXba9mREsSuKP5DcF6JqQvLo87mcsNzejaUOWj/x8cYdRdmLkRvnR5pxmRkyIbTMrKCx/Ie6PKSySvGL4Akx7Gazof4MX4lRduDo2b5mGtyOPV0Xe8O5MQ5UhPyDuDy+ViyJbeMaGpSvhuHP8WOcVou3AcJN8kcp1a0D22xZ4ddsOYyDiVJPP5TJmiHR+MoXzcRk4sssov4bmD+yE4zR9uHMdm9zP8M54wKyTEdpOWTVyXn+e8hOGZp7C4k2wiPfHc+d0ZsfJrJ4Bju9yxfHcTBHGCynFORW7KEL57uhzIKEsWA8YWhrH6N0ZvU1hI/FY4r+vLPi+MrdImiASB021ZhAMBgOd5KyA0YziGIom75Vmnp3K9VMqtawbJf1siejP2Lg5Eie0vLYnxo50ecSmJn8od9yWVGNlb460+nNNrLczU7/AK0+9OfIW64zm2NZ81ZLh/Od1uXD6w7jcjHsa9Uz6LNyFTX9d89Mjj7bKmPFUoc9uuWbXsK3N835XRYnhu37Hq11X+v/AM7dJWRy/wBUgzzE+ncPiz/PovtQy7/lUe5s8vDbH2qxr3uYywlSp0Kb1wj9zc7U/K72JhN8zL6s1xJ3w/kOATdoyJE+a7l8nL8gyjHUGQY/jPAwt+/nypgV5Y5DTPLHPVLIw2TGPYXmLngLKHNNyOY/4zi+3jGF2Fu4O2W35eSKeyvMz4+M72P17kMV/wCbRva1l+84jXMpvMWaAxiAMbznfI9rWDbgLT/xke0tP3OlGgsaXjkd/BwMsxp3wXkuEy9onkX5he9g2zLOXTPuSIrGm2IMPBlp/wCNFNpKftQ/CG/ryHgTWItc5jWBJw6YWyRzDdZmMUda8GYwBA49wsmH/j4+2okdsQ+DZ+rkDg7mMV2lcf2x5eFkOJ8uyzkpsxXDsHQl0nkm4eZz/wAbGW15P4cbfBb+tkPg3ta9sjsbvt9ypFJO0zKO8sWrErcjkr087m8stbYhZm7h5+P8OMtuafw4o+Et/XlHCnsLbJ/F9uU+csVT3lm6nLCp5ccUY7S46jHE3IH+LH+DU/42KPhkUNwWAKww8Lc7i3+/s+23Llslw7lWfsvEYpiG3bGp/G3Nn9sWxWR+Njf4ZCL72VnN87TwhBCMMybHfbjl2OyBqlTHyiSyNpiTCyJnvchlQooogri7oj+1JDiPxYj8JqV5I5EjfNHeHkeCoMiRPbLkRfjyYco3DZHcstziCw1tgkb426A7q5ok/wCIi+EhK8zHAjfIwcTc/i4xzRbectl5RhnJt0GZf8Cju3zF1oky8fcHb8zI/wAVRXnTY5M6oOIaUUeU+JnfbNmFleW2RNHJMizxnxtEsUxh5zFO9BlC352e/RBf13Xi5Sx+iyPEdreS1sPkPIzDCyS8mS123H5SjzC2xhm0D5ayzc56GP8AWnXG3OYyPFbAmWCcrQrkW7DMJqMnC2MysexrQsnRduk9Bv62RuMqSp1yY8TvthzG2OSF5buQZpymgxPDdv8AAF8jd9FjH9zcj6JL+vMuPlvHKTJUR2pZQWMrnr3Z1b2NsVq3rc7lpEiStyTRbff3cz+jIP8AsqNBuZxuqQKsIZSS5WhGu3QZSXTSQ4zgKHHcX0QhWDbaqESiWejIpXc1Nxvnb+OuQpHNEhVu22DMqJYlcUes3G5jBjCKbdMYja0ejfDvxmTaQR1M9E5K8kdjBvlj+gzLjZPkmI7TcpqE5urmMtZ4NGoU0ve4PJoQhAHRzw/8aEbTU/axeiTleZggpvkjuh3J49XR54w5k1BlSFan6VnGfOedciQ+KNcKj2kywf8Aj442qkdkB9DiV52/HRvVq0Lm2IXlujbq67Y8yJ1BCsjUbqsy3ibNgXF3+DMGlzkf4MX7ZyPDjD04+/2FOizhjIrJER2mZXMPT6fKeR2nF0PwpDHXJUu024Y/xY42+p/BiX4Xva1lMgZUlKZ+xk0yyQlreUMrYV9WvYVtDuJgTlDJLijI7blKGaVWqTIEszkL1uZywztDewtelEIILbkXVGZDMXTBsZMbjnTuroSucr6vGHFXcmJNZdEtLYnoZJRoFUYalFBZH5ruXMZC2UhnTGrohSnVA4z0zt8gaYK/Om2jLxZhZxek3XZcULFOIMbp8cxjQjMLKCfIWZPR81bgUKVu6mhHStZX9gUH3z+iTtrTAGpGlhfBVMTUrocUPTjLe5k0UiyG3G0id2xx4uecXhyLFNp2WzHls0eectpsUQ7bvjhSsUcU04kix8kZSKPm6INCk76poX+VLKtHRmXKYW4ui0iUn0bkTv8AvYiPxmPiKW5CspTEEgrl3mbPSbIRhI0MpYl9fXhZ7hTpjaZYyyA15Mh2hkD81RdkQBe9y+WE5BKUjgHKUyex8nZSKOm6a1CkciVUIuTrKDG7CuUxNxdFpk5PB3D3EokYAhLDxziCVAVUVaz6AzyNpoqbPjbdDOGJXRJ5CkHqkTA2yhkxjKHTbnlq17CtoNyGTHHKExx7B27H8Y9B61Gmo+VMpNHTcrqJ/kyqhJpGsouNFUUyNpdFkEk8bMVvzcr6O9rXsqjzSqoUWWoxlyCYtFIchtZ9I3RucLejcFi0M+i+1HLg5Qxcfc3mX+Oo1t3xd/jTSe4oEtHy1lJoybd1xPUpVUJC/K6LjSe1FMzaVQCiyraKZW/Mz9p1TW3raUQ5P1LOmrNSTInYNDJmNw+Obok64kn2Ppu1ZEiXFf3QTIxDm5UryIwzJhmVFxtIGimhuKoIAF205lvzdyWqPTp1IFURazqA1yhooqdPDdd7cYbPGDC80W4JyhxpXiHGs2qWbJ2BVSzGO5rFtNO5N3bT4/mbHkhosws4GmiNvy9x2sd5RHGCz3uGxy2hfM+f3k8eKs5ZSPizapZYzoJHDopLiJZs4xu9U4bcM847EXm/JcKVR/P8AeqQObc6kaPEv7ec9Q8z6FsFPe5WCt1Hbi55JlBEA3SZApi2XuJ949tZw4w0zRyPxwjSuDa3O6WW7V8QyenvaFkSMHKZtnzGIo/uQiThTNKo5IgaDbx+zkbRjMAUB4ypj5ip73QRVFQc2ZhmwycJbk55TBssbQ1HtuGHI5SJvQNifWCCEYZZgHEsxqS7Kz0w1jZuZxdTFuXQDuxZHhUitxFJvgTbXierrx1SxIhJeM043Zqe907QRROQtwmQKS7a87TMTBsxh6Wo5g3EsWossskHJJVjLH82tKdl8UV3WYj3J4zpv3DvzKqYcyQJ+sQoIVF8CTHfjxva4T0TcNze2dlKec943aKeN04hCIctz2QabtpmUpIcwbO8aN9R3FmOYny18jcekyWVbQ8XPl3PbRm2DGCy9lGBqI/nuEvFNrw1PBXpyCd4INtiI7Yv63eXRdgp63F48a6X7nJE6qCWPdRP6Zdm8rcTY/tKxGz0wQqIRUPM1SRKuIlm2TEErp+2hzVjNWSDP2Maj+4qOOFM0wjEg+OWjvBjvbaT4sf/ABeMiwZgp73MQlvoe4PI8rPJxnuhyBTDsuOMqPbX8NsF2ljZGFPzuWYSxbNakuzQoFLIruRxlTLuMBYzJeRotJcfYkyNB4bjp73RxpJReYc2ToRGBtxc7pg2WshdR3bxh2NUlSJEJPyFJoFC5mXLdnMPcAsGzODo6juFcVRWghCAP9Tn/9oACAECAAEFAv6JHdd+GmYl3nJ+SXBvc1qlM1uqU+30/rtuG9rfJJJXkEIPda9ul/kcIbiuWXYsujgdbfI6UntsL2/A0Hbf5FTFd4qH7PgIPda9ul/kMALjEAFgBoz2fE4HX5ETE9gfgb7fQYDtv8gpSe6/xO9voGHute3T5AKLuYIIbBt8TvUcDn9rdaIK8YfQd6zAdl+epCfUd9fUMPfb6c8IK8grf6eo33es4HOwhuK5Rdiw+o338AwHZfnKUntt6zPfwBh77c4TE+QXAH7uCcDm4AXMEAFgB4F/rwhh7Bc1TE+MOkMD325olJ7r6Y4HMyi7mjDawbcEX04n1oYey/MLW60QV4gcIft4pgO+3MEhPEM9nGOBy8gryj+nEN9nG+tDD235YENxXKLsWHiG+3jmA7rcsSk9tuKd9NAcDpytMT5BcY7Q3t1sIPbflBYLmCAGwA8Y7RGA7rcoTk+MPHO92iOB0vyZIT1voDfdor262EHtvyQku5o7WsG2gM9+jNB3W5Ha3W5JXiBoR+/SHA6X5EkJ0YvdpL262FbtvyBOV5R6O/10poO62vCG4rll2LByo0HbfXJSey2jv9NPe3da9u2+sSk94tIL26g0HdbVlguYIAbADpB+3Umg7b6pOT4g6Uz2akVu617dL6hIT1vpjfbqjgdbackq5o7Wta2mN9urNB230trXvckrxA0vWutG3/01Yg91r26X0iQnpoutdfUbrTgdbaNOT5R8TrXWuvDN+utNB230IQ3GIsuxYPX1rroTfdrRB7rXt0voEpPYH49a66Yz3a44HXQFXBYYTix6sz368wHbfQBOMBQVlBOLHqB+7XXMBahm2FbRhNMBQVl6CoKFpRfXU9bWq5oLVc6rmDvqgjGCgqx2oKkoVWva+hvpriDarnBq516uMV+Q2EINBVmWoKou9WFYXILjDarnBq5wquIV+UWve1BVGhoKsF6CMIuFf6ca5gLVc61XNFV73vzAKg0NBWBoJgB+sXt4P0q5gLVc6rmjvXW9+bhPNDQVlBOLH6B+303va1XNBVzquYO/PwmmAoKygnlCoz2VcQbVc4NXOvVxiv8AI1hitVxCv/U//9oACAEDAAEFAv6JI41f3NdLWr8RT8kszyxNaFc/x9ekv/pf+u0JgBi+SVimxBZY7ljCKww/I5g7FhPPEoPpId2i+R3JX5BF/c+CY7yg+RXBV4S/rRP3fgWZcsYRWFb5DONCSWcaI4yk/wB34pDu2/yF9KcFXnM+Cb7noTm+UHyC5K/GH4pff6CjLlDtewrc/VKLJyhjuYL4pPr6Uh3S/Pr3sGy1TdQb6EnrTm+UHPXNX6kvt9RJlyh2va9udrVNk5V73Ff0pft+tIdzswYSwKTxKDfUn+16/pRBvlBzlyV+QXrI+1wCTfEO1+tubuKvwF8Ar7fBRnc3OOCQWcaI4zgA9nBtfpRJvlBzVwVeczg2+nCIN8Q/rzRzV9geDb68RGdzNUoCmKGMRguCD38S172uSbY0HML3sGyxTdSbwivucUg3xD5g6K+IR93jJDutuXLlVkxV73vfhp/u8a17huUZY0HLDBhLApPEoN4iX7nHTm+IfLHJX5R8VL7tAkO625U4q/AXxkmhCK4blGWNByg84JBZpojjOMk+mhTneIfKHBX+QZx0vs0SQ7utyZ0V9gdAm+3ogiuARY7GA5IrUBTFCEIYtAn+1o0x3jHyO97BssU3Um6En7WkSHd4eROivroy/t6QIrgEWOxgeQLlX4xX10YfbpUp3jFrzDAlAUHiUG8qSnd4dc5K/KPRh92nAO4BAHYYdY5K/AXpC/fqEp3YLVnnBTlGmCOM0hP3dSlO8gdUvV/km6VP93UgHcsQBWGHUOivttpk33dUkO7BadWpsmKEK4xaZL7/AIdK6enpo0x3kDpRCsGyxTdSbpOldt67aSht14fSunHLHcsYRWGHSOivuvoOl67b121229KbQdOKkO7b6Neq/GK+vE6XrtvXbXS3CTe3RdK6cJMb5QaEwwJQFB4lBvr6XrtrtrpbjpvZpeldPWWZcsYRWFbQOSvzD+PS9dtdtdLaRP8Ab1PT0pDu2/HUhOGSYkPKrttXS2pJ+1rOldPgnN8oNAYkTm0Y00YjUFagr7etta96snNFRKYRYtGYnINoxqBejEKkvSg9mpsEQqClNvQUdqCnKDVrWtqTCSjaMayhUY3KS6va4b6C300oSxioKQ29BRhoJBQeQjLAZYxsIFRjYoBQgDBfXhKMFQUY70FIXaglFh5QIIRWMbkw6Mazg0MowvhB93GCQaKgoxUFKVarAAHl97WvRiBMZRjUZajCDivWX7+Da170FMaKgo6CmKtVg2DzcxEmNoxqvRiVQV6CfuemwBCoKU29BR2oKcoNfTnxiUg2jGq1GIlJVEfdoJYxUFIZegowUEkoPyMIosdBLLD/AFP/AP/aAAgBAgIGPwL4JOH3q8B/yfL+q/G5nu0S30/9fxqUebaLJDESVPP5dIiD/cPjvidStygoHUiAUOy4T1Ivqmj27tRonL2HtgoHUS0K0d64aiRObQbtQr6paGChqBDYoDuDvXB/wC390d/c/upVpYP37VDTXh9wCgwbn1fVNhg+bjlGhOivD3tCtDJDY9onMWXe9epVJnvDzhsUBJog8YBfdozpt7x6lTXcHf8Aa2QUHbaJq0Nu9231Zi33B13HKNOGGBUHTaFaJacMW90xOYuO4Sc/Uqk5IFQctuxQEnLvckBNQ+piLLcJOPq1eTGWWBUHD9odURNwWiatDriJN99WYuyBUC23HKGUtMRNstCtEmUtURJrxzl4QKgWnq1SeVwm0Q2KAk89zNATUNr0goFl6tXk0htuE2THIHxuYrRNWh8QUCw31Zi+rgwR5mVcJfe5hwK4wsC+IQZOErjCnB349mDXwlcWK/RYOfHswU3DwrixWOCwcE1gsFi6MFjiuLBcJasOzF4TiuMLhPfOkw7MXvNcYWB0WPZhqBgVxhT7cezDUfArH4n/AP/aAAgBAwIGPwL4JPUH+ry8at/6U+f9Ir87kj/X5s91f/qfjHUqn/H6h6s6jbVm+WyQVf8Aic7mVW1D+yrA7DLYoDEfHcaRMalfeVeFcJakX1SVxlHs6dWU6kdKjKEPHtxzjUaynOVEodtwVwlqIa6ka6uwdzp1SOocVZTkHb5d3HMNQujRmPcPh3blES1AvM1fVPuHvdKqWx/3GS+wd09/7n90KPPvHx792xREn595UTPveeg6VXk+zXVIK8y08VH6n10aMg0A0MdiiJPiyn3DoR4aLpVeT3PMqR5lU9CPDRRE1Ha9rafbDLH6VF6dCjMZs/Sq8nneZ7Ea6pnRDx0sRNXbXjcZKP0CWjHjpvteP4/L89INP0qp7Hfh7hkombXETVztNdeUI8yrS+TBjlLt6NGQaY+DD06ph19Oj3KtOWG4TVwdJ5lSPMrmdOWLHIXTbT7QYD4sfTqzBz/j0ZjNh82O4TVwct5zbEa6sxYQyQOQuS6qSu+gSYgy2HMHH+Ny5bf4Yx4Mtwmrg4cPdMlEzYwzWnIXAeZXlCPMqddhzBv6NHt0/uXZcJq4SbelR7tX7BlHi02nKWw8ypHmV5iyhqtOYNcKfapl/LMGq4K4Safx6Mxm8rDlLRf9WxXVZiz+TZA5wzXVSCu+jY0FsuCuEmX8bly2/wANJbenVlLJw+6Zfy1FuxzhiPMryhHmVNXm3XBXCTD0qPap/cvrp1SLAaeRC8r1KTBrDgxzBh4qRFejV81xU4bsWgN2CkrosnqUiK9KqHissRuZR4NXCF+i4ipLBp9SkFemTT+6wFw3KFWBc/CCsYBcRWAcMKwCFwRpK4YVBQrBBcGAK4oBYxKwAdEKhELh4TuXpkVD5KHMBGiHjp5LiKxxXCA74GSlA7l6VQK9Skjvjx0WCkuIqUVg98aYHdgvSq+a46TDuDvcIX6LiKksH9x0iK9Kr5rGmI3Y9uAKxgFxElYDUaNQEVgB8T//2gAIAQEBBj8C/wDhOjSmCOEJELeZM5CNEIkHylEVJK+/6rkUX2Sksg247HF0FfabdzI0440i8wAcUFyqqUWnu1D7v2dcap0xZ39MNSASxXOXGBhyPbJ1xMhiNSGY5OSHW6GSpmp7ybc6y9/XeNDuDVSYelzJ8hnNReEwYvUQ0E9y4rh0Lu21j3Vd47rE7VuiFR1q8MCI+lbXzgYJyRy22WzJvtMc2ncgG608mcc4qpTW7ZdLdcXLbLOBcQgzY0s7fOa/GQ5ox3HFiy2+ls6Gng2kXG5zYlut8RtXpc6fJZhw4rQ73ZEmQbbLLaeElRNiu71wgs2kInbzujsthu3BB5fO7YU0jSMMTk8XMzZMuNdoN0vGrNO223XQRO2Tpd4gMxri2aIQuQHifyTG1Aq5m8yZcd2xTXZUdqELXPKW482EUWKZucT5EjSNZVrmrSmyW1rvC0a5NJxGhZDUdpLO8VERls0lcpx5SWmVFUs2G/aqbTrYt5tXpK1xBuFyt/pCJ223wDHME2dF53PiRCHFHHBEFTp2O02LWWmbvcwzqsC3Xq3y5ZI3XmEywy+Rvg3TiUMyD07NRNSat07Y5byITcW6XeDDkkBbnezvPC6jP01TL49mJ0CVGnQpTQvxZkN9uTFksmlQdYkMkbTzRpuIVVF20vredqR+NrW12SRHtOmku9vaG4wGhubbk0bW62V0eZYS5PcxWiRqqJXcWbb0MWvNIjdOZyVhLqG1I+j9cvZ1TtWEnNhy/L8W3ewmZVBdAWxaV4cIPdtRfB8tfj9zNS/8v3n/APHSNrdofU7wtWTWVpmay0LPePIwJwnpcbUlpV1wsjat+jik5MEHKZr+NTbu17wDzhpC53/WGmtDNmLrfaLTpO0Kku7C25Thuk+8EuamZCbVtfxexIwdLlcM8aF85pKJz5f+gAsPpkO0vTN1XnuMRXYyiRmJTLRIBWCDOBC4hR0c5aqioqCo9NV27ntLWzTPZrDqr7zenoHprUD3bvR0EXonnT91dmxuU4tepcbr07dxTFkgOWjTNj71oV8kR2nrndnW22pcCdPdb7W/PnyHFBpVRtFJVXAU2k2HT8u7PXFy8WmSIS9P3m3M8qM6ZOr2mbDZYQkRcErVfXxtSv2m7XxuHpVhpbdZGBk3F3tdmmxkJpozbRRaVzMWOApsrdp7o+8qdcT4YsR61pHbeeVOAFdjJcHxqXzWjXxba173u8K3hZdRa2QY1vsdESRbbSTrEgxlBxuR6pDitNtmqPIjCq6mZU21JpZ4ja013tR1vloI6oyl6M5U4QzkqihDO7dGEExXms+LbQ/czYHVS769vcR+45UUkYs8aUjUY5QpReyHPzSFVNyQS+HVlitwqECzaNj2qEBLmIYlvGHEjoRfKJGmkqvTtpnVuvQl6wuNxtLQWyJNmzY9rsFnYddCFbYMSFIj51ShOOEdRVxxaDWpE7bNdlHgaRtjkGa6ZXE7LEiJbyQIzayGXWEBlRPlI305qDx5VSZZY8yFbJPIdZi3W223X0iXEkqHUyQnej5jc7lHRaOK6BblTZWrrJcl/d7Utw0/b3XiJx0bazbrPcY7BuEqkQxjuZgHzWhEUwTbvI0/PuU6DY/uzZZ2oocB5yM7f7TGs2g/3G7IaIXGYki5OR3XVTiUGaJRVQks2uu761ppS/6d1Fagbl26VMXmMOI/yjMZL8jNMjTWmiFzylTMhZqpRi7a3t7msdV6qht3i/6iuM64tynJt1abmGEBI0tkITMRTyNqKIeVMVpwp3taC7Q9Js+i9WthZykHmdAJ0u/QZA4IggJ+ggcVBoPMcNaYrt3T/wDIFx/+h7y9tC93GnJhW2b3pahWwSJ4KoENvR+1wXYnMFRJtqZJvbPNoqZmgINxLs3aJGl/SbvJQJF4l3G5DdZD6IqLJ50WWw3GKpeQ0IN7uFdu8TSrdzn3iPaNAizDm3M+bN7A85oGXb4jzm4/RsJ9uMKogjlaSginCnuXe4MYUOTNtFyiRwUkBCekQ3mWhUioIopmmK4baH0NqWV92NWaWWY9Hu0MGbq5b+2z56zofm8yMEmJcrfIHmCL4pnEFWuXKvcGelLe0Ole7UdVxrkRSY7TsWPcbRbIkF3lGYOzX5ciM4TpAirnVSLftIndgaSMPm8FpZ0NOXEbVclU534x1VUy8ZU3bRLnFgsc2M4hKHb4mV5peF5g+u8h1tVTxbdz+roEJsrLpQdRrfXXJcVt2GtyggzFEWCd5klVcSi8tCRNu6GdY4jUmNpLvEtGob4bkqPGWNa4kyC8+82L7gFIMQZLgCpLtJ07peI1Nurl3tUsWHpUeGCsxXTJ4udKcaaqKLurVfX2skA1FNGuOKWVaI36AuLWdV6A5q5a/Ow9W0d4Njq1qLu1vEa9R5DY5nUtzsiMkpURPK7HNYjSMcBbac8O2sO++7QyjQrVHY01peIZcwYT7sEG5SMmifjY1tJVc6M1wXft3hf8vvfgeYVdu73/AJfZ/C8+qbd390ehS7lom0aoKTrGFFzUcAlgBb+eomCNA5H7YwLhUFHHxSqKSViWzu70SzqvUUoORZ9I2jQ4wXElKhZG5bz9sbisxwVMzhs89RHGm/a/oSKK/wDUC64KlFw09pZF3+BU272FotPuBbcej9R7tv8Au2m+K/2Kv59xNtNoqKipYLOiouCoqW+PVFToVNv/AOikMDBU1jAFUMVFUIbzrnMOPyhzJt3TrRafcC5Y9H6j3k/9+2j9d6RilcdQd2N9W/s20BNx2TCV23zJDjDDa55L0WVZ458seMms+XioihOuEq8227I2naNPLZpsqaMlEJHGWJbDa2t0c40EjebVUVKoOKJ3h6kuFhnaaeuvd+0+3aLjXtsaEhaBYtjsmrbeV2fbmW38tOHmUxpX3P70rFaHrvcbTqnWOvPRmq1KQ4nd3Ess+Y5qCKUlXVcjNybKjTdoQTbEJebKiU20O13jallWTSr/AHTaUn2iZL1Tc9KwLrqx9H01Asy9RLlbCn3WLbQhGy06+pIj7piKrUh7qntN3meV0ak951wtLN6dksDrXTVkuTQ6Yh6nbeBle033S2TJIdFXW3nRfVUPNTSd70uEpvVF377tfJbrPqWbMjZGVhd50mFp+7oBEvLtosNAEYqMI6wA1AUzDo64sa4nI5Gul9f1baNV6n1HpS86i1NGhurerDLvthrI0/erPcnM0OBlSGdG0QVBBXbT804twgnMslqlFCuzjj11hlIgsOrFubzvWu3COpZXiLiVxFr67tfIZ7Xyezdq5Qdo7Pn5vI51OZyeYmbLWlcfVvbUcSO4asca0fAEWyc4rw1IWdgKKuZbTGkIH9oo7ab0yoCM9mEky8kmWp3q4ed3FFMfxgxnnOSBfZNDs4y82DrLoE2604Im242YqJtuASKJgYrRUXBU2BpoAaaaAW222xQG22wTKAAA0EQEUoiJu2Np5sHWnBUHGnBE23AJKEBgSKJCSdC7OlZbHZ7QT/44rZbIUAnty9asVlpXMU6diCMwzHAnHHiBhoGhJ54lN10hbQUVx01qS71XZyULDIyXgbbdkC0CPuttZlabcdROYYNqa5UVaJXYo8phmSweXOzIaB5o8hi4GZtxCAshiip4FT1HzYjsMnJd58kmmgbKQ9lQec+QCiuu5RRMy1WibBKJhlZTbZstyVaBX22XFEnGgepzBbMgRVRFotPU9Llp+yFds2f0otqgrcc9a5+2qx2nNXpzbOShYZGS8DbbsgWgR91trMrTbjqJzDBtTXKirRK+7Tts0X3V/e2xjDiPBeOe+3nkOiqyGMoOCPUElNv4C/tUr9Lt/AX9qlfpdgGT/wDz8zIFt1t9sX3XnUB9ks7LwIbhILrRpUSTFF2/gL+1Sv0u38Bf2qV+l2/gL+1Sv0u38Bf2qV+l2/gL+1Sv0u38Bf2qV+l2/gL+1Sv0u38Bf2qV+l2/gL+1Sv0u38Bf2qV+l2/gL+1Sv0u38Bf2qV+l2/gL+1Sv0ux27XHdf9z7MltkyRu3PeczTW3Y4sRMrhknXA4a/wA3/se3XVd8cyw7azVtgSEX58xzgiW+Ki+VIlPURPmpUl4RVdmNY6ivFyn6duc40umlQlPFZ4lpkFy+Vabc4fZ4sq2sqJsmmVx4m+tNc51hXW2SmptuuUVibBlsFmZkxZLYusPNr81xskX+RCkSoIiikREtBEUxVVVcERE2h6S0w+q6LsEl4IcihrDlusoqXTU8tASpRWmUUWK48nyaG8o7X6yiXKuCW3m2h8lo0FybR5+O09/Zy+zq0q/JzZujaZ3NauNyLIYlTC0z21VA4s1ozK6acJD8jM4JvsJh1nNHeQJ/Ij/pdpeQvp++sh945EdauW2yyR4LcOTiCZdwJM3SMbo60VS8XOc2jOo59kmzJ7pAhuW6M1DdfZgJgXE2qcx5E8p3DFAHabJx/XbFGEujr3J4OJvTdmTaJ3taU5sWXEkQ1vpQuqehzI7gejb+0TeInzRBtwug0AvlEu0S81Zav0DJb9SwG8OzXMA/WWm14hg3IE5rO9E4m6qTZfyGm6hk8t+5u5oOn7aS43C7utkrAmKEJ9jjU5r5JSjY0TiIUWd3qazN2e+9cHpkM5SVK4XhXVJyaqeSkW2ng2IplR1ERKI1RdYv5shBpi+8ssuajpWySLOCoqL1pJ4tpt1yqgrfmGeZ0VgMRpGXpRFTtfw7TLbcGAlQZ8Z6HLjupVt6PIbJp5svEQFsovdpk6LvWVuQtFX0hpyQ+vKkgI8BXWxPdFEUspClBdrtFuECQ1LhTo7MuJKYNHGZEaQ2LrD7RjgbbrZIqL4P5CTLncZLUO32+K/NmynlytR4sZsnn3nF6AbbBV2R1tJMTRtlI2rcBYejrE28POmuIqK2N2vJgi0xoWUOIGVXaJbbewEaFBjtxorDfktstCggPhVaJiq4quK7avczKOa0mxVEr+tOtRsvvHzqeLZ+coUJ3XU9pDrXM16CtOXDNw0dZPo/zbRHvtozDv5xoS/z7PwWRAb/AGvmT9PyCyp50gdbAcMqZY9xAci4ogmgEuA02f7ntVG4xcLacs9LrMzC/ljk45c9OuI5QxdhZTeYFcUb5gYIAJ/IRjuZ0a4clO1xg1U5CXOs25c1soenmyFcpDDeynIT7fKC05ZptHtgI2d0lI3JvMoMedMyfiGy3rFhoSg34cSwUl9TUlFISeW0MCo/TvVuVxC8AkyJJsy/kpzNRTpta1zecjb8676eRl6N21pLwQmWvzA8n/D9SD3v6PV2C81PiP3hyGmQ7feGnQWDehy4IEt0UF2qU51K15m0DUTPLZubX7v1BABV8xvDDYK+gIXF2WUJi8yuPVnRVzCX8glC3OAesNQi9C09HwNYnCgyr28C/krejictFrzJBAlFHPQu8LUQOP3W581y0drUnH0bk5u03d0nFUzfm5yFslxUFI8c6eq83Uk7VeLWxw7lyk7Jo5inD5v8dNrQCiiE5Gu80qY5qaknyGyXx8lsfi2hp9kcpr9pcNPiE/UnWi6Rwl2+5RnYkuO55LjLwKBJ4RNK1EkxEsUx2kWu5OPyNF3pWWZx0JUmWF50/R17baCqLcLM4RZxRFVU5zY+WhbNSI7rb8eQ028w80SONPMuihtutmNRNtwFqipgqfyAuupr7JSLarRFKVJc3kWKAzHZHDmSZT5i20HynCRNrhrXU4G3p6E6HmuYlYiW1kzW16eiHQcxuDVXjRBrVxzAjGoNNADTTQC2222KA222CZQAAGgiAilERN3q2hhM6K9qeKS0WgqDNru1QPHHjcFU97bTcXKKc/SpnQd3nrUiQi7vLXn1Xx7Smulq4Gv81xiPT+sK+q6MRofvJZRdm2N2iZ3yy1kWsi+znACZfA6grurs73UakeIbrZG3ndMnJVUekW2OqrMspcziV+04m0O/s1Uogs/yAt/dhotztWnrRcuS48w5WNeL22jgSrgTgVFbZaWeYLZYpRHHUqihSDYLaKKEYM8qTkQHJ000TtEt2lcXCSgpVcjaCO5PWaVj8XW3Oe9v4OoitBxJ87zjD4dtFxVQODSWn23MnkEfoiLzSTAV4zVV+Ha9RC3tOxl+Hzls8NyeQnrLZ3vaMVyCp3JiTcTijRLdfmjR1qeopgsa60XmoSKJOZs341B2tmqIXLZkuD2W9W8CUvRl5jiHbInFxcpcyONKuJMmK76+7yaK05Ky6u1PHIZDzB0fsljdztPSkIVzMzrgqK0yu8QzuYKIVS/XVimob2wJILgUdtttPK4EdUXEJEpUQ3OkUQRwVCr6zRTHFwBqB1ceFeYVmAcPnDyl+PazReFOzWm3MUBKAnJiMt8CUSg8OG2oou5FWYY7tzc8cngxyPeD1lwsd2YGTbrnFciSmSpi24mBgqouR5o6EBbxNEXo2m6av7zq6OvbzMae+SFyTtrzh+h9SsgKkmeApqjyDmVG+aGJolAcbMXG3BEwMCQgMCTMJgQ1QhJFwX3cueqruSF2YOTbYObK7dLs8J9it7O9etMamVF5bQkfydrp3p64UpjPpHtQo6PUz7kKB2WGy2VRS22qOIJk3IItt4pm9dpSCnCpWoqGuI1lXE2vJ+jysdkEUQRFERERKIiJgiIibkTaU30SWzpvxzwG5S+GvE2vrTk29hC1Pp8HZlpUUTmTWKZpdqJd5c8BzNf2womCGWx92eoZC+ndNskVgOQq8ydYWaAUCpKqnJshcIp/syjROqJfdt2RIdbYjx2nHn3nSRtplloVNx1wyoINtglVVcETaLYrEbzei7E88zbiUVRpIbZgNz1HKBaVdm5U5IlRUb5bfCZFWBZLUwkeBbo4x2G03rTE3XFwzvPuKpmXyjJV9do2JRB820vDUl40XnahnnmUMMESRSni9S0u7u0BF8GPN7RD8Xg9dau9zRVYTT9zblyCYTq7ff0zG5zWxy1gXpnNnHcSq6K0QhTa1artKoCS2+TcIWbM5bLqwgpOt7u5asuLUCVE5jRAdKF7tD3QaSeNy5XNGPvW9EqrrcaTkOHp9tW1z86eJC5IFN7JA3jzDHZtt8BK/wB0FqTeHsFVpaKTNuAsUyRM65lTynFJd2WnrtMMYD2a+aKqvl5uS7CnUUcMudCy/h9TTszdlcDH/dpbLvvYc311z0/d2Uft91inGfHDMObFp9pVRUF+M8IuNr0GKLtcdF6reINKXuQzEmSFzdkazl+5tTsIvktIDmSRTFGiLNUmhREVFRUVKoqYoqLuVF6UX3YfuvVP6gufNgaZt54o/cOXU5j4JisC2AaOO7sy5W6oriLtJ70tW82ZNmS5Mm1HN43Zk99wymXp7MnEovESNr9rmLDIK+wR9w5LzC8nj/8At+l2fGmJ9mx+bX1LY/0tyX20XpTmtgfv/kNmnftWm3P6YoX+f13pa1MZ9T6cadkREAetuNuSrku24JnccGnMYTHjqKJVyuy939+kKupNKxk9GuPkqu3TTzZI00mYlXPJsxELJJhVhW1xVDX3XuF7vEtqDa7XEemzpTy0BlhgVM18Jmu4RSpESoiYrs/ep4yIekrSqAxHrQbZYWXiWNEFcW1ut0cqThY8akqcDaCkeFDZCPFiMtx4zDSZW2WGQRtpsB6BABp7BNfqnml21X5HEK8mz3G30Ja8K8eP0sPUQ/sZ0dz4weZ/xdrU50rb4qL9YGRAt30h9fae9fRadmhSrp21RBF7PCvBZyn258Ay/u68xic4UVOAnASiCm1p1ZZi82uLHXxiJFet89rgm2+RT8tFfqldxjQk4ST3Wi9zmiSOXCiXFlm+ORS4btfgcoFvzCWQoFmPFxS4e0oqrRGUJYdkiIByqJIusxExmXAxTmnVceQ15DadAJjxKSr7BqyZguU9ZTqs8TS8+8g1gVS6rzrBa+D1LknSIMup4uVJZNf6qLtbvCCSG1/mSnkHf9Cnr7ppu7t54V0jEyRIiK5Hd8uPLYzYI/FfETHoqmOG107utYu8jTV7ntxX5BV7LDnnQLPqFgzogQZrBiEhcKNkJn+Jy+6qWmySETWmpmnGLXy1q9aYC5mpV8UaLRwC6uNWmZ7ixRok2++18Zre7y0q2wHkzOwrc8nFKLNikq4ou/ejPT1hInsOsLl5SLY7gmZtOp8+v1uf8rHyuz8OO6vqXRrpK3y8v1kYNQ6F+UmzgfYz3wp4iaYcr8Zr7B947Sxm1JpuO4eUE6y42ccz0iJTeb0RVJ1pOmpjipDsuj77IU9V6SjNgDjq9bdrA2oR40wlXE5VvIhYfXetWzVVIy907rqq+vcuDa45OI0iij82UXDEt8RC8uVMfVAHoStVoKKqXXvE1iGezxpgOuRlzFELlIno3T8TNROxxWBTm9KjiXE7m2REREREoiJgiIm5EToRPYZcmqD2eM+/mLyR5TRHUvEmXbWkqhdTAs0evyPOZE9yhYeUvZMPh9RxpdzgGC+8YqPi8O12jrvafjmqeBXAdBfF+Q9htHeZosEYtE2eUpuOlUiMyzRfSthkgHk2+4xzLlolKNkqBi1m2tGq7I4pwLvFR5GzpzokgVVqXBkomCSYUkCbOmCqNUqiovuiqqqIiJVVXBERN6qvQibQNA6PeV3SdlnGzHfbUuyT5YVbuWo5KhwnCitIQRlx6rMQ4vZdrfp+1NoEWAygKdERyS+uL8t7wuyHKqvg3Jgiexamk5kDs+nr0/mVKoPKt0k8ypjVEy7a4lULrpVhj5vkr2Zq7OUT6Sdrx99PV1FC8BvYeKNNNtPB9r7Dc9NXYKx57Ko28iIrkOWHFFms/wBpHdx+kNRXBV2ufdXrJzs9kvN0GILjhUjW6+OZGrddGnDyoNuvLCtg4SoiUVpxcoiXuj/010zJX7x6ijJ6cejLV212STwpDQh8ibegqNPKCNVcOY2WyXC4s/8A7LfGm3ZuceO3xF6xi3JVMwOY5nvp0H5FfY9ZOZsmbTt0YrlzfrUU42WlC8vm0r0V21JKyr12pORm+SvZrZBcyp4x7Xj7/q3Nrd2huR4cea3Hm+P5vsX3wtEet/05HJZgNjU7jZQVXHUVETiettVcTd1WffQE2WwXuTn1dpNlmNLJ0uuu1oSjMG68S8xyQ1TkyVx6zKarV2nufO1JOyPzVrDsVsUqFc7u6BrGYwVCGM1lVx8k8loVpxZUWf3sa2I56ncXpcMpQpS5XhSqUpG6ZRh2zBGxFEBDQRHBsh9k1Y5my5okRitM361dIMXLSi+XzqV6NpDmXL2vU90kVrXPlh2uLmTwfq1Pg9WC7/tDbXw82I9D8XSPsSoqVRcFRcUVF6F2tXeBpFtRsVwlOyWYqZkiZHFRLxpyUqJQY7zR1Z6RFRUam3Xa0ansb6SLZeIbcuOWGdtVqD8V9EVUCVDkCTTo/JcBU9zZVwnyGokKDHely5T5o2zHjR2ydffdMsAbabFVVfBsDEQpMXRVkV1u3oQqiQLGDodquTzS1D0renBHDo6ttcG820O1W1gYsC3x24sVgNzbTQ0TFcSJd5EuJLivsl3brTtUyzsUpXNluUeTRfB+r1+DaxuZcva5l7kVzV5mW7S4ualVy/q1KYbvV07M6KxRX6rE/OSdPyX/AGO5aauaIgS288STlzHAuDSF2Sa3uWrRrQkRUztkQ/K2ufdFrQ1iW263Mo8JZC9VbNSLkajk24WVOwX5lBDNiiucokohGq+5jPczo4nJLz0mKGqHIdTOVNccAoOm2snl8txQdkUrU8je8XB2Yt+UDvE3JLvksaFzJeXhjNnSqxoQllDwrmLDNT2WO3VU7VqO3MYblyxLlJoXi83+PbRzeXLmhS5FEWv63dZ8rN0+Xzq/D6tmlD5TT0ka+NezuB48OVsJpuMUJPeJKp7Gmu7JHX03YGf3sLKKjkyzt1LtXClVfta4quHUVVV6sU2G33aRm1hpcGYV45ioj1yiYhAvQjvJXwDlyPBIBVwRwE9yzdhuMnqy+I9C05EPKfJNA85vDzS4FFtommC4G8QDuUqOd5epkckXO5G+5Ze2Krr/AJwR9svT5OZnDkTDIkBSxpmLHMK+zafjVLrb+r9Pkeb26W3UsfKTtWHw7aGbyoObTFnfon/q4TUrN75c6q+P1WHPsrg0q/VNmQC/1lTa2O/aQIhL9ZWAzeDcvsZAYiYGKiYEiEJCSUISFcFFU2tutNNtOLpm5PuvNRRUkYk2uQ436a028a1RCaRUVkizZepcxIV2teorJJGXarxDamw3kpVW3ExbdFFXlyGHEUHA3g4KiuKe5N01JfJKRLVaIjkyW7gpKIJwsshVObJkOKgNAmJuEiJv2n6s1C26zpi2uNZoqOHyYVqZMvRmn4x1TrpNCN4xy1JXHMFVE2bYYbBlllsGmWmxQG2mmxQG22wGggAClERNyezaMjcXWyL4/SvB5u3ag4kr5Sdpw+HbSsWgj2bTdjYyh5Ccm2RW6Du4Uy4erOXpaKM6nwSWhL+oS7WwvAybX5l91n/IHslx05N5YOuhz7ZMMVXsFzaEuyycOLJUlBxExVsi6drj3N6zU4cafc3WbN2kkQbbqNC5ZwUIsOy31BTlqiqPaEHKi85S9yYPdNohztVmtlz7PLdjmvIvF9bVW5Eh11Ep6KsY5xEvIIs7nEiNqkDT9uRF5AcybKy5XJ89xE7TLc6eMkoKY5W0ROj2fSMfi6qDdXvodfIhhglfK82x+DaJFoKdmisR6B5CcloW6BgnDw4erdg/9BIP4Wm1dT4eDYR+wlyWvjyPf43sod41haIbrZm2hvYx0UXn4DKp2a5irfFz7dgJlv5NFqiN7NpcHh+9mnRYt+oWlVOZK4FSHegH7O5A2ufBMr4mm7LX3G+6Vgk5dX6nimCuMnR+yWRxSZfn8PG3MnKhMxtypQ3EVFAapqi8MU1DfY4Ew24PHa7U5Rxtqi4hJmJQ3OkRyjhxe0NIW2iLzLVbE6ziaXtt9nsUIccOp4vCnrJDP2rDrX5xsh/z7XBn5ksHPzrKD735H2Vxh5sHWXmzadacFDbcacFQNswKqEBitFTp2haltDT0jSd1N4kjIvDPsUl1v0nZTcPh7bbjyk0Sr5QtGWBKO1uvtnlNzbXdYbE6DJb8l1iQCGFU3g4NaEK8QEiouKe4tz1XeSRWobfLhQ0NAfulzeQuxW2NWvWyDHFaLy2xI1wFdrp3o6487gs3HtGRwS7LOuIIPY7bGbMipa7OwjaZFUuEQBa1VfaOjodETz3RcPj4gXn3rPVR+Z5xinrdQw91HBw/3aTIa8S4c32adYJGRuaPndnmH/qlzaA0ZUlTHkPoStub+Eq0zIm03uX1irkQXLhKHTva1yej72jp9tsq5sBaubiKbKItO01RKq97iOPPOA0y0BOOuuEINttgKkbjhkqCAAKVVVwRNoeltNOuDo6yPvtW97IfIWMBCN01PLDhWsnKgxhOio3kHhNw62+xWhnkQLdHFhkcM50xcfeJETO++4qma9JL7RtLOA9mvel1qvHmWPabfP3YZVrw+JUr629s/bjMKmPlOPR5denor7Ox3o6ZF1i52s4vpxYeduT5uTY2+9sm3QwfhkANmSYoiNlhlNdmJko2x1PZeVbtSxhyjmlIHm90abGmWLdWwU0wRAdRwEwCq+4X/SbSrxuXe7iz96HonE7HgycpRbC1kqfa7pUTeRP9XVBxR1aAsxoF1JeBbk3h3AijJSrFrbNK8EVF46YE6q70QfaQ7hyXi5/Txt2lpfvYmsb+bX1rRbhlNpXd8u2k0ng3uN+zyIUxluTElsuxpMd4UNp9h4FbdacBcCBwCVFTZm5w0kytHXhV5rAqqpcdOyXk7RFXNwFdLO7xAtUVTAVWgOqm0G72yS3Mt1ziR50GUytW5EWU0LzDoL4DbNPcGTenOU/epqnA03bTWva7kTarznQRUPsEAOseXDoCuYx2ld7GsCenSZE6TJtBzeJ2fdHHTWZfHa0RRYdVRZwpzKqlMiV9pagfqidmumtS4eJDFtyXBHGvDmQ83rdPydyOdiAlx/211s16dzbqYe0JdoIWwu0VDmWKYeHIngH4k3N4xZopy3N6JgdFUE2l9zOrTdjutSZhaYWYvLOJNaNw7np00cxHmmhvMj0Oo6O8gT3An3m7Sm4VstcR+dOlu/i2I0ZsnXXFpUioI4IlVVcEx2dmvDJhaPtFBaarha9PtO9WzXibS8XtwVI/KoSrvbaSkaBBYbiw4bDcaLHZTK2ywyCA22CeART2nrCZWiJbdTS+DibVX9Q20EFCruo+qp73rbFMTe25Ir4eqOK6HjXp9oxO9fSvNhz4UmIV6OFmbejy2HG/R18aJv8AFuI6INuFh1mRd5Eu0S8ETTd/t+S26lhBROTcmwRUlttYKMO5t9a38lFzN1VW19vxu5rRRFMZZuTDF/KIVfSd9RwUj2dDFcnZbS7xP1w7SmNOTjFs0fI7PcyyrzORMZlxMU5lFoi9nj+Q0nzUrvVfaakSoIiikREtBFExVVVcERE21dPLBfQzYkgovLzTLkD29a0/V8E8HrYbv2c9A+B1h7H4202gvfbQ4rv5xkC8Xh9oS7dPjtyoM6O7ElxnUzNvx3wVt1o0+aYFTbMSyZGi7yQNy0oSjcNOSnqhIEUTKd1sTtVwRCIgIUytvYxbhAkNS4U6OzLiSmDRxmRGkNi6w+0Y4G262SKi+D26tvtL4/fLUjL0aziK1O1xPxcu+ODWoqwhZI9fKkLXiFs02/6gagZIrzeGiKzBJqT0S3yaq7cDz1LtV0QuFd6M/wB57UvEiop2e13B6p+SnKiOnUt3ClNtdylzcIacYFacBZyvbjmNMSDlj/S9bJL7B6K78bws/wCNtai8EUWvzKkz/wDJ7RkwAbD07bhdm2GQuUS7UgccEnCUcrFwEEBarlE0A18naV3ParecYnQDlOaV7ZmB6jJOOXPTxI5QxdiqJPsiuKDzRwyAPty7apvz/It1pjE8dKc2S8vBGhRhWmeVNkELbabsxY0Sq7XPXurwVbDBlNuPRaksRG2qratMwqoKLGjt0J9aIpJmIuN2uwgAoIiiCIiiIIiiUQRRMERE9qawfqgq3pi/KCru5noySjSfC4qbavlULrrtb49fkebQ3XKDh5Sdrx+D1t1HwRDd/MKj3+HtHH7B+U18bxPf4vtKB3t6Q5sGSxNivXZ6FwuQLuw6BwLyFEoPaXBQXFpTnIirVXV2gagZVpq6sokDUNvBcYN3ZAedlFeJIkwVR5lceAstcwl7aqu1u7udFu8/TVouDjLD7ZKsS5XJoTbuOoHyColbrcxzAjljVvMYr1qIlv07aQpHhNdY8ooLs2WeMmbIpvekOY/RSgpgie1dXnmy5rQ6xWlf1lxuNl/nc2m15kKhIr+rJgpXySbZtNmykP8ApDNPg9bOZ+2hyWvzjJj4vDtMa+znqfwOsMpT42/aU21XKOEqBcIzsSXHc8l1l4VA08IlRcFTEVxTHZ2FcjkO6LvZAxPJBLJNsUh1zsF5baFCRZtndUsyCmbheaHAq7MSorzUiNJZbkR5DBi6y+w8CONPNOAqg4062SKKpgqe2f8Ap/puVTU2o4371kRz6+z2J+oK0KgtWrhd6KA/KBjMWCk2W3pm7MZdT39kDkCY9ba7cWV2PbccQdOiOP7uOgr5HtbUvFQnvRLAYVzcy9W7mDuVE6lC2juZVTtd7u79V3FlNqLmHxebU99PXX2Gu9txiidPVOSmj8Cr0e03WorQ/eKzo7NsjtBzvLl85timtKBOEEy7kR4AVcM1Xu6XUzxN3ayo+5pg5SkLsi3sqRzLIvNofPta1caHf2fMNEFn2xP1Pcsrz4+aWe258jl1u7wGsWGC4qLfArjpfIZAlxWiLce9jW5HObG5uS43aB4Lre0VFFwG1TKltswoKAA8CGIAnCBD7XkN5qdqu9qYpSubK45Jy7uH9Xr8G2lqjlN/0zIPGtc9+uaNl4szAj6tVWiJvVd23X3OGipvEHheNPfbZ5hp8WyoykuWvQrbPLBffWQTRon83a43FyM8sW4lIVGm1HO1zJKPj5SiDnLFab02RG5zbLi/kpfmxV8GZyjRL9Ul2RRVFRcUVFqip4UX2lbu93RvMhElxjyrgcUaej740fMZnqI4dmueXrEVMqu5kKvORNrdqeDy2ZZJ2S924CzLa7ywAdri48XJPOjrJLiTJiq41RPasmdMfaiw4cd6VLkvmjbMeNHbJ1991wuEGmmgUiVdyJsza7UUiNo2zE43AUhoMGytuNjPvkgFw9IXZxB5YruRW2/kkW0GzWqOEW322M3FisBuBttKVJd5uOLxGS4mSqq4r7WUiJBFN6kqIie+q7WyFGlsuvO6lim42y4DvUs2265s6ipZaOmG2koCRZbshq1CZiPLRrPIeekkvNN0i41er5OFdl9GWVKdBH2iX8PVDHFNsXkhNr83s7FPhbRySm2a5Xdx5enF6SvwG+YU+LZOZ2iQvTndyD8TQgSJ8O3VQYyfSJtHC/puZi25bjTbjfzDASD+iSKmyqDZRTX5TBUGv92eYKe9TbNaLoeVMeVzCZr04skrkZz4dkG721JAJgruRY5L4euaRyKXwDsgvG7AcXokt1br4nmuYKJ4yy7cyM+zIb+ey4Do/GCqns9wsl1YSRb7nFdiSmlpVW3RpnBVRcjzRUIC3gaIqYptMsF9NwtHX5xiNcH8pIy5bnHHPROo2AHN1kBXCR0UzcCvN4kiLs28y4DrLoC4062Qm242YoQONmKqJgYrVFTBU9qt9zukHHZEuW9FDVLkJVJx558m1t+mmFbxM3TMXJKJ9Bv7QdmojiA5frmjcu/ShxrIyryoLRf7NbxNRT5x5j+VRPaOZwwbH5xkgj8ZUTbjnskvgZzSPg6kTSu1GI8l9fCqAyHxqRH/AFdvMrWIovyiF6RT+enJb+PbjldlFfmk0xT4Y4k78e2abcDdX+e6v5x0/wDNtp1pknlORcJhlnUVRUjxwToEaKiyMNtIp2OML/3asZvHywI1fK2RjeLmKiqtXVVd9PYlVyIAGv5RjqSr4V5dBJffRdudark6w4nk5yNo0/4iPQk/obecs+kWE6TbR/h8PNjKLye+eyDPiyIZ7lMKSWUVN9aIDw49GUtvMp0d9fsxcRHfhZPK6nxeym9AZzalsIPS7TkFOZNaohSrWq9KvoGZn+1FEwQy2Puv1G+vp3TbBFp918l5k+xMUE7dx+VJstUyJvWKqUSjJL7UdlRybd1Rekeg6ahlxIkhBHtF0fDGsS1g4hqn5RxQDDMpI93paqFyVOnvyXrF22rj7z0lxxZ+oJHMTMb0hwyFkl31M+kF9mzPOtsj850xbT4yVE2XNObcVOhhDer7xNiQfh283iSXv7xW2BX3qc4qfBt5nbRaFdxq067/AOYSttfg266asdPALgM4f8INfjXbPLnOOl00RVX844RL+DbEHHf71xf8jfLTZOVHZCnSLY5v6VM3rNIR0zYDfHiT5K5ltIN9PlDkL49rNGog9ntVuYyjuHlRGQoniTL7L5zFZdX56jRz4HRo4nx7Zoch6KW9ELr20p4MQdRfHmXbzeUU9gfkK4kpMvgySUF8feb2Rm72s2nE8so+Zs0/4STQv6+yI1PabcX8lJ82OvgTm5QNfqqu1U9itfe5onNCE7mEuRyB6u33xMzjvMAMuaBeWs+cV4SVXQXAhTa16rteVtZIdnucHPnO13eOIdut7i4KvLI0IFVEzsmB/K9pXPUN7lBCtVoiOzZsg/ktNpgADvdfeNUBsE4nHCQUxVNpmob0L0bStsVrPGQ1yW2xsuOLbbHHPcs24nmN40+UTppThHZmLGaBiPGabYjsNCgNMssgjbTTYJgINgKIidCew1kSGWE8LzoN/wDjVNl88R0vmsNuOfESDy/w7UjQX3V6OaYM1+AOeu3msAGBXcXJMl/OPkjS/Ft5xcCZRd4i9yv6sQUBds0mY64S78g0X+m4rlfi2xaJ1fC64S/gHKP4NuqYab+o2Ir8aJX2HTMEFXN6McUUJerQpU5WkXpotWOLDdTYQBMoAKCIpuQRSiJ8Ce0OW+y08HzHQFwfiJFTarSOxC/sTqFfG27zERPq5ds1puZGCfkkcVmvT+rvK5FL4V2QLzbEcFMFdyFFIvedFHYjip9FE2RHHXILi/JlN8PwOtcxtE+tl2R2O80+2u5xlwHQX3iBVH19ysF3Z59vukY4z44ZwrQmn2VVCQJEZ4RcbKnCYou1w0dqZ5fujfJTESe+uZIrIuL+59TRgqSAAg7lkIirRkiRcxtCmyKioqKlUVMUVF3Ki9KL7Rg90eh1KZbbfdBjzjjH1V61CGYHEJwVyrarCmapLwc1HHFqINltC0/AyuOgnaLnNy5TuFzdEe0yi6UDhQGx+S2Ip4/W+cSo7HidebBfiIkVdsJJPr81hpwv6xIDf4dssW3uuKvk85wW1/oNi9X49vN4Yxk6F5FF/pyy5a/Ft5zcibFd4I+Y/wDlxxFpdqvynXF6cgiH4S5qrt+I5i+F0zL+rVA/Bt1TLTX922If+FE9m0nC6Fi6eiqLn4pSkX2aqrRM3Couoi4dHtSi4ouCou5U2VSiCya/lI3ULXwqLdGzX6wrtzrRdHGj6EcI2HKeOTG3/m9qTI3b2B+WTSP8PSvPhqjg++4myJNYfhl0mHnTKeGqggvJ/QXasKbHkYVyNuDzET6TS0cH4U9aVztrGbUunmXX4eQU5twgJV2VbvnG4OLjCY8dRT8Yq7H3e3+Rm1FpWMPot546u3TTzaiy2FS8uRZ1IW1+cwTa45TX2h927FKQNY6njOAwbZddZbMamzJu2GISX1EmYu5UPM4n4qi/fK9x6X++x/3ey8PW2uzu0MSVC/FzLlgZdItZRwVTTZe0TIzSp8k3gQ/6Fc67cLzshfAwyX+V7lCvx7ZYduMy6Fcdx/NNAVf6W3Uxxip4mBDD35hFt53cyQV3hz3ST80CA1t10h5xfoILaL79eav4dsIwmvhdUnK++JKofg2o22DaeABEU/qontPTUdURUZu+jxJHOICAJEWYY5ccCA6U8PtjzqIy6X2mXI98DzeV1Pj2zwZj8Y0Woi514CvRlJFaeH31ItuqeW4sD8nOkxMvQmSRklj7ze3Ju1tcYc+UrFRP/wBpKyGKfz12RGJ7IuL+RkVjuV+aiPZUNfq19W0d62ifNI8i5dsUWwVI0K7UIpsB4G1GtuvEYnFyVSoE6GAoO1o1ZaCRGLjHTtMXPndt1wa4J1ufWg9bEfqlaJnGhpwkns16vQw37iVotNxug2+LjJnFAhvSkhx0QTXnyVayBgvEuz2tu8ApE3tc3tzseKyEhkFZyjboHIkOinoqE2Ajk41IAoqLmVdgCJraC+87TLb35T7E2q/IG3TexmaivzEUfHt1rzzi+LI2PxUIvw7cMVsv72rvw9YpJtlABAfAIoKfEntiMlETJd7etC4k8w07HOqeBSWPVPAvtvlyWGnw+Y82Dg/EaLsqsc6Ef9iedqvjae5iIniFR2rarlzmh3Mo4rP7LJ5sNfhLZAvVrqm7m5DiKv8ApKOxXF+rTa46cvJlHjXSOrJJKbQSYdTjYlsPpzY4vRXxQwUlTFN3RtcdB6mlh9079PCI9LRzNBiTioNn1DHPMTYQ5rRgD61SjJiRrVnL7O4eo9H2aZKdzZ7ixH9HXUiL5RXO2lEnOKip8o1T8Ozj+jNV3C0uLUhgX2O3dYlceqCZF7DLjt1piQSC9/ZVtXpHUFqj+T6BkpqeCQVxFqyTWlujSEm9Qij7+xW/WmlaSGD5ck7fzrdMYVESqPWu48yry/3rSeLYAZvzVtknTzS9j6McRV3DznlWC4XiB0thdaMHWzTMDjZIYGK7lEhVRJPa8l3BEj3XUi5V4s3Is9whp4KLmXN4vbv76vtpta0qjc2fGjvHhXq2DcR51adAiq7GEd+4XwsRpBgK0wq/SeuZQRUPGKHssXS2i4keY8uRghdm3CW6q/KCDbAgsK6vgXm4+HZmRI0VcI4oAttT75HhaYbjx1JTEuXO7JNlNIprTKLpY4bads817tEy02O02yVI5hu9okQIDEV5/mOIJnznGlKqpVa+0ezan07Zr62gKDfpO3xpTrCFWvZZDgLIinj5TZCSbOPabm3jR8kq5WmXfTVqFV3qsO4uJP39AyxFPBscrQ97C+wwqXKsd0KDJIU3rIst2VmG8WHktm+q7Bbe8LSTquCqovpC3ytO3J1A4SNtSY7E+HjBnKvh2BuZKlWCSVE5d0YXs+degJkXntZfG5y9kk2yfDuEdaUehSWZLWP02TNEX2pqaTgOV/V8rL5X426cvKi4bu0b/bJ+ltTWeK4Fc0dJjciYlN/mUXny/wCpsY22Pdry4nkOCy3boZ++7OcGYNf93XZYGidJCcgvJYt8C5amuY1XgyIw2wytf7ha7Zpw3OxwZGBLertH05Gyr0PWa2cuflFPnRl252r9fABEuZ2Jpy2m6pKq1MkutyNksy+OKuzbj9imajkt7pOo7nJmZl/tIUTsFrcr42F27Np+x2iyR6InJtNuiW9tafOGIy0hL7/tZyDdYEK5wnfxsO4RWJsV3+8jyQcaPf0ps69Gs8nSs5ypdp0zK7Izm+SnouUEy1NtIu8WmWlVOlN+xXDu71nHuPL4m2XXZOmrt/dNONOyoDyp843WEXwbI3rjTM+TBbXKsq7W5XIq0XKSNX+1KUJ4/fdc37A1fIU6xPLRCdSk+Ei/KJXGkbkAngTllsh2S9W645kzcuPJBZCJ4TikoyW098U9o6rnVpWzXLhTEfOr7bXqodfk8n4a+1CcdMG2wTMZmSAAim9SIqIibGM/VNsJ0K1YgOFdX0L5hN20JStnX52XYhs9ludzcTDPNejWphfpBl9ISST32xXYmdD6VkEBFkF2w6em3hxpf7ebLGTBCnzlaBE2rqOelliO48vUepFJrIXlKFpsXpAGnFT5JtNr4abNuat11dJ3S5D0/AjWptP7NJs0rkbwePktr/l2A2dGw7rIFarJ1C7IvimqblKLOcctyfzWU2GJbYUS3xQ8iNCjMxY4YInCywANjgng9uqJIhCSKJCSVEhXBUVFwVFTZw7lo+3QpjiqXpGxItjmcwkorri27kx5Tn9+26mxy+7/AFw4y4JITEDUjJNkiotUUr1aA3p0eZfDsS3G0XW/WmOikslgQ1TAVgPlk/DWTPt8caflBYVNkY1PYX4Torkdftp8wEPcSdjkqJt5V8LqrsPo3UEFXSp5vKc7FIzL8gQk8tHT+opeyyH8OpZdd4sB6sCPiXoTDbVsjHq7fa2aUw6+RKPf0L5v7QKRNlRobA+U/Kfbjsj9Zx0gBNiFzUce4Oj+Rs7b1zzU+bJjgUH43U2MLFp2RIXcD91mNRafSWHCGcRp4uaO1NJaYurMV3dIs2njjwVFfJrer12ppol31F0K+9sD+stRQLS0S5jbvN8l6gns/wB1FgrLtvD4EkAibCeqNV6h1A4lFVmA3FsEE/CJtfvOUqfVeDYDtOhbGr7dFGXdGCvksTT8o3IvLk5xhxf7PLsDTTYNNNigg22KAACm4QAUQRFPcUvvRpKy3Z40yrNciCxc0GlKBdYnZ7k2n1XU2OTozU1401I3jFuAheYHiBpwTgXBgV+cTr6+LYnLG4eprXHqqfd+clzDJXh/cNwBiY48Q9DcZ6nh2W1640s7GmMKgSBViVabgz4Sfhymzq54sjSbCgXdLa8VOoug9ny/WkgTsMUr85xF2F6M81IZPyHWHAdbL6pgpCvsOoH+FORZLs9U/I6uA+fFinDhjtrSRj1r9hZ3cPUN3Y8F6V85x9k514ututbVKodwmx4Yl9VX3AzL72xo3dZF4dDe1aITrqV+jKl9jhF8Di7cjTmmWuYS5WnbnLdlm4S7h7Bbgaov/ELXb9y6f1DboMj8W43b42lIWVfyjF0u3ZpTraJ0i+Xx7JM1rrS1Wwj8oubcdU3UUVeLmLIOHGr9WQWwOaguGpNVOpTmMyZ42q2nT5ke1tsz26/70uza6f0Xp63vNUyTEtzEm4pTd+8piSLgtPG57m9i1FY7TfItCRGLrAizgDMlFJpJLbnKc+kNCTY5FiW76OmLiPouYU235+kjg3PtDqJ9Fp9kU2OXobUcTUjA1Xlw5zthujqD9tEmvhDNFH5PbHPBTdUIPeDpSa1Q+Ujl1tj9tcfUE/1Wey01EkCop5Qg/XfXYAmHJs75eVzg7VGRV3ILsZFk08Zsgibc61XGFcGukoclp/L4jRslVsvEtF9dq06ildP3Rni3ecRHI9PrLzMPHtqGTxdbfxYrTg83t8U+FaeV5zj8HsBemtQWi2mKV5MqfHCSv1IuftLi/VFdiSE5c72e5FhQlix83TneuhQjy+MQPbsOktKx+0u8LLapOv04/pNR4YQgz+KjiJ49uG36gssNxERTnPQ9FtNtn0FHRYF0fBU38Li027VrLXlvhE4qOSGrJDl3iS6q7xK4XI7by3KfKyO/Dv2By5RL1ql8VzZ75dngZzeKNaBtbRN/Rc5njrtl03piw2Phyq5bLVChvuJSnWyGWRfeJU6SJVX3UcizY0eZFeHK7GlMtyGHR+a4y6JNmPvps4793Pu3Nc/13Sr3ojJ9S3ZH7Ilf91r49lnd3+uI9x5VXGYd6F+0XAKbmo9wiLLYdcVPlL2UdlTV+mrtIt7K8c2VES+WzKCYkV6trrmTMGPHJrhu37A3eIEi3urRObEcGW1m6VJl1IskB+rzdhS03qDKdPyY3N5Ez/2UlGZdP5nq6nOqJWJHZx/9RcIkenvlzaJtKOhec6luL3FuWkK1x6t4JUfN/HjX1hJdNUWdhwfKjtShmyxp86HB7TKT+hsYWuDdbw4PkmYs2yG57zsg3Jif+32KHojSXMc+ztNpuWpLiCru4gAY9Pfj7fvUptkgyN5X6+MWaIubfzrJZc8sMqdBRPe2R3V2vnFqvWQ9N21G+mpKN0uRkSqvji7C4enHdQSRp5zqO4Sbhm+vCbKLayr42Nux2Kz2uzRMPNbVb4luj8O7qYjTLeHve7jh3zR1qWW6uYrlbWls9yI/tHJlrKK7JJK/leYni2cf0FrebCVKk1atTxwnRlJcciXOADDsZoejzV46dPTsquWq5X+1MY9osTqapgq02nHS3uC7dYbCClVXlMJ+HbsupbLyn21yPFDI4chskwISgXBaK5/p0x2u0O03Gs2U5bE7DJYeYk5GrnEkllzDyTyozVchlhtb416vjUe4FMukhy3tNSJkxM8xwWqsxWXeTzGm0VM+VMa7EFlsVwuJJVOZcJMa1tV+cIM+knzFPAogq7K3onS0xWXFUAfsGnJdwEE3L2i5XAZkJrfTPlbRPf2z6pujNliuYk1qLUbkzq1XHk2yyekIrZfQJGvHTYD1Zri83NaVONYocSysoXzFkSlurjzfjyNqvi2AouirbcJAUJZV/V+/OGabnFaujkmG2X920CVx37BGhRY8OM2lG48VluOyCeAGmhEBT4P5B8vVOmLLe+HKL82CycxpPAxPERmx/wCY4O3M0VfrvpJ9XRVYcsiv9n5WbiFtmQ6xcW3URcCKS6mFKY12A9Tal1JqN4aZ2oyxrFbXfnZozQz5qIv0ZSbCVm0NYG3gpklTovpiaKp0hMu5TpLar9Ek2EAFBAUQREUQREUwRBRMERE/7Tv/2gAIAQEDAT8h/wDk6jJmFtrYQIIIb9qa6uZsaOQJcYfOp30caATGM4kwQUaFkUry3PHNk7n1EfyMsFIRqr665VyHrLXW0gF7kCvY+5TerA8QIb/wvciXoAhc7fGETBUnKjDTf4JbGEmqmnVc9GNKCnTjBKEAgiCIyI3ETI0khSR9cVXIBQDz7Cz8/wBiiRJMoZfvxM/SIM6S6xQZvaMgjDUqhQ0AXBCnk7BAFLjizcIlxJ0MgChqlETKLDzb+W8Vqzusq6cgnuRVbFmWreKwQYC4M/OUSwiOVnfMEmsn41+XaUbcYUPhEIVIIs9CWZWuXWdNLpawCFLqIkGQODLtO+gmjcz/AI9YSGjVKqpEMCIwmFiph4AJWWHxzLCaw4YZtxKHNAJoMrs14OodSMhTVY+5Km1WFeh2Djw5MCAkg68XT/K5rmRxiCoLzumWCgLAMKKUSFCWYiLWIgEEykQ4w/qxkXrF0oYRobJj5Y1QH93RnWeVbllBBMkouFX26JCzRx2fj6bydY50x6gLom8w3JixZQXmFjtTXN/hFtXlgkYAU8mFigMtLFZh0RTmckIaManLsDtuDgX0pdTrL5kZcxpBUyYwMFgcmdZSXBoa4ra467JFJWL0gYMMcUpgY0BemCGJyYRDjkHfISMltnCIHQkZds9sWoNPyQs7cvaOwCuylADJlD1BUAW7YmyjoBNFARLtyLKOiM1kYk++BHIKt1J5LvyJJYeYmhBLYKokMgEVDzKzgIoOQl8XX7NBXBZcDBfOxKFCec9CaEKC5SA0oRaBECQySVjATQcBb4sn3KN3FJXULJvCFPNa7egEjJidVPIPURQkx7Fi3Hl0OM9cpzDO2cT2QKAxIagCAfrEfKX7hkUoN1XHGNkvnkDaHqupPsmzSuAp8yEI1seOWefc96ztzFjZRz5aLsntnj5ArBoaNm0nCD9XUrcQ1jnYxT8N/vmZUAohoF4DIIYFAABBT7P9oEUZCCJR5SgpJgHkLlcpK/yOLC7bdSq0murmZGrlCXGWk9+1OYPiWiyS52OSUn6tBWMQJtTVdlUwGOWIFLHZ70k3Ct1OSaTXVzMjVyhLjL51yuREHlAw17ZZR6zx9BI5EGkR8aWWWWWWWWWWWWXrVGpFpWxP/Hsgci0+7s9ZJb4SJu01pVEkiCS0s3uqDqikkgkwg/RAD/gEVeB0q2CrCUa4sg9ZQEKMY6L62yS18gHNa26n7cNs3ruKH9DgZMrrSpLYObEmrKlINV+/CIkTmav4GcMi11wdMdaGKdrsB0YihuJBcVTxF2auNZMmPoaO2cHegpakglUUIO5KcgHFKhmhTEgxRSOSO61ZOAScakAzuZaxUGWVlw7MuWuaXrE6jdQJu5QlDai6KlXkyVtZX0JbfCHbHVMQLBajKIWjCdN/ms0EDjtQbSZuxSpRVa0cJhuPOLg6GaxNgdRhirFwXW1LgzcGVbmqqzW+J6TnCINGQkisjye47ISiBeP9Bws9BcyICZF9bhgh8CwIJOgibGF2QsTMGZVLcJnMc6sctClGKF0xOEtb3BnbuRtt2DvHIgFKRPIkbZQLuWMS/MqBtWAPoGys1tSTRakCErqjIX5UP2odSGdmlyaGu5uZE22akwtDzBotLy3VNbK4s7PfYnQ7De15I4nC2AYYA1YXTGTlC0EKCV8BeC3ALyiT6ATlu4hLNRzLl80l/e3dGNBSTcbQF4DIIYFAABB2oowNzgAvJQkzyFYwS5TzhOA3uaBBLCtI1Mmb3PaYwb4wXUMKuB8l0eT7cgIJZKx3Dz9M0pyxhcNZVlcM9CwB+SAUwFUe5czFjdeS5zxY5qsq1ZyJYoJwgt1KoxsZJC/JR1deXcCs1ywhPyNQtKFwe8y4q61/hoQPPcV4ETh9gaES5SevV2Jm1ewlndJCYJXow+5duujOCBhYQsngggqOFO6oxaGRBocdwH7qSxBghyFbihDCx5wUP5EdGNNF5UpCpBRHzwoGpDjthXGk0IirzgJyiAgbHMCTu6iTNEfYSTmpuJtR2QPDrGACAK1YaKFtZsGwJPTuhaIOjIThGzACxUDHxDczwcFTxedpXwF4LdAvAJaxhhlXZQ+FEnQuEKEEzZJdXQXe9A0sI4+6MgmySm8FdUG7m/Crkb39Ld6ZnjM/buRNWcaEiGQX/wDcFjFoHzoqSqydF6IEmUEws5zAyEoZIQwsXfGTRm1qLptyg1Y7NbjUQ0xRn/r3mrs8dlEIwLtCrPmbQ81S6BYykjDOfAkgSAbPnAKcl2xsBIzRdX3bw9sbUWAld+GCyqRBHo4AjuKzEdip7CSyWxwv8KgeIAgg0QVQ7ybCEQgSzBLSluEEI06O0rtICiXm1t4IVUSYmHCNAbas0QrmIiVfVYOh3UwmsYBseAU4JSGBfwuS2iw0q12s3saQYmlxpRyLq9gEpbTv2F/nE2h7YhuibYtWxyzoFZFz0vmqGKywAYLmkZihniJjBqABEFxBfBAKOyEECTsacpLCWey1MqlshkppvWpUs5itFp/gO/BjziMQBmByoQpGWgFwBMAZmKj5qGC5lkwVzDvKJnMWhklKJqMZDwhJOtyo0NMLdOWtHZFxMI9okxYJq6ROETE4F4crbwBtf2cqWCA0uAEI30KSxZTtlmER5kJgkMSagGfUPRjLpnQlPeNgXdEMM48CQBAAseDoZ2ZsXa3zyraNREd8HOSxY6Vsk9TcFplbcUaTP29LJ07eCD4dbDNC74xYVFXApdOzdLJhUeYOGc+BJQgAXaWYaVLpshUoYuts3j6TK3UFIiHg+lQCXTlSQzVg6/ExbxOVydps4aWZKLWRpIv4IAh3XmRiIkJDEMo0VeDa0IWhwPMLEII096JxNRygAcJ8BJBwYHaZkwXherEM2Otu1JIkto5d0UNLzkHb6FT/AE1dofjwm07RlyiVP5IsgRBsFvAFlN+jHI8uO4yQ7xh1eq/lSuHOHkWDWKGoPD5KJsswQ+5JkiavBuBBYNLEx2vPXt2xeYwCbys5nHp4QJhIAAhBsiVcdmUGZNqJJpJkaiHPQajLtLy1dFSryYa2sCpl62/cospkmYtSRfCEUNRj5BaoqviXS2yAvehiZrXhrX+UyUNdNqxeXs2tLrgolQCUwTfw7RcHKouQVCUgqiwcJaU5CQPLX7TY/wAIodTAG8zCEVXXibsZI0nEsvE0eTgcrmM/QVariwuTzdcmjC3bASCsFGYiRSiMS18Ls4wSYfDZ8AIYMgmqalEUBJkuETI3WDIxx5VJzQBAJ+iQFXFlAJMotHv0S6aex+Ltu6ie8DlLZuNdVE7I3B/MJ7YwLtL2xRYm9auDLh+TFgTKY8N+xMzhCu4RslQY0igBb5yYsYRNAHZFBpznIeUtrnOS1u+1lMKZ5moZw7HYV6pmosvyAA8AAg8ZJCMcuorkZuGBwm/48ginoFhbtignAmrBUiPwquHLeptEF1bez4hTLlDDDW2AOIgjS5B3MYRi2+UuJpQqQ+w1CiSz0vG36L1FmwOVN27x784Ku6cRZIuezeNU6zCx2C2nbEhKDL3FCBVNm7V4eiWx2Py8W0qY1CGmmAXZzAsQXZIw4PAcE3k7du05SqQISRBVEHBfkBjLpNhcRfHFACpYl4MuSbB3LDzbt7DkzS+Tj7wXkNT67eKapzUgos0CBimLaKFp5B7hVlcQIcpUmmPAmIHkkMsx8NBasnCtWndiNrO4RcDEO4AXwL22i4HJuTDv3YWVaRMNcjk+NApiY2s2ktxByocH9GZQe9C8LGTyN+G/3zMqQAS1HLwjF9VG1EADQet+4lgDHBJLAW4GJhWaE2W3KF30Du3JIHWBGQsmdzGfTx54DFAKZUhYZhVgiJ6dUeSyJpQeRgEdaGchihEiWO6xNq7imJruqZUOBzYcaCoxmMDzaov3IaCEZMPxIa5X48cqMSW31WgyNEtBVEksLCkAMMfrqukjOIYTCD5DdCcgOZzKPCIhLlXsVFScM5wZXBCCACctasMrk21nu640WLTDmAGnPgAzYYJyDHOQMValdK6rRC27Xii8ejjPUGFKHQ4YFBT1rdjb4TOBIKgbX+2vDp5u634MMSkAXP0A0Usnr7o0wDA0IiLjr/NCIIyNxMJucAKeo8vWgYWCNonFSnckaD7ZKJDx4nwcx8V1ZsUnbSMZYHna8GvoicT3gg/0AJq8DJVsFF+2da3JGxcyrLbuwKTNZs2rSInrV55ukzN3mJek4C9ize/0KkoRNL1cNExuh3IZJ4UXRUq8mStrK42LAVMBDgqYRIUJ1C0QJWrhLeTLKOD/ADyVs3cblqUYTPyKT2PGxdk7toZ2a1/J/Cr0zu223XHAz9YTwZKEMJJC1dgdxAKggvBWHGAIIrSZH4TlSAoQuSAeXKZIFhmeAD5iISB0AWDhImNUzK4NYiOdbyrInvA5y2bDXuWHnES6nYcXVcOdgtbWAd9+Cjh7mMBMaYlqGXASrZ9iAJfIRxKgUABVWAC6q4CsM60VhlBIzZVGrODKC5b8rphGOEtCvBA4pDe2dFmp6bnA8MXujOYad2wc2K17PdF+cpG1YiZtBF4CVjd4Ik3oTNxIJI4KIAabZWdMFd44pCFpUdSe7IClQluJf5s02XuHY6lHKGxvSQOVDwrdavC2+DSna2QW9YiN4rVRiT0WD7h3parUcswLp029eDYbhKRapF3ygBFQ88KyhRc9rMIg8PErMqBzgGGxiIFJDLxHZgBAzhwaa9Iw5VKrG9bRrDJ1ZMwe7oEYPW89qIQJQAN1bBUkWWpCKQBPF88qHU8qarkNaTMWPJM2qyathFYMr7UTiODkLgJEeCZ6zLvxLNRcuaO/JHqgWaywo84aFJCUtJBUFCFpFboLllpoUsssFLP+pxbJNpR4YCWSI26ACtACzAySbhZek0UwVeTahURYtEVDNEFCb5z1UHepQ09y20V82gWXAvO2RdZ1NHkAk5HqovOsoBEBsbCfvU0QIXo2tH0q6zDL1GI+QW0znqN7zAuA1iO1TxUBT4uy5B81YpgkK8jRaZd4x05vbxzcfXIGDMOYFFYbfSwV1+iAIcfDf75mVIKJOFVSUB3oc3SV29cHOmjqhy08Na4IMDnI91YKkgYZUXmKlulSoNqp09xCjrzQXsxZJ5iKkjSRGHYT6prnMuS+oqp1CnY8E3istZPWj2hmtbJbwUERBEhG4jkTUaygZcnMt5+9TrM5gWcc5UgAIJMQWbs9lpiUUrYB9JCLegCTkwGRMxnG58U4KgkfMQ9JiZdohYJ1hRvgksNlPg4ctfgpYk2CLPVM5imMyTIRJsPjtLhqoVuFdt7ukqTGTCoaSUjmXlVtyWUbR75qsj9m7L7t+ypmB8t3ZNYZdNcvdkfUir8fAvqbh9e5MoMRX5anYbHM1rR0Jvb62xy8UlmQEMQsGJ9hUKpQeSpL59qj2roiGYLGMIyVFDz1BWb1rgTSV+VQpiAQRBEZEcI6j4T+J9didoA74CV6eIgQQNErOIgA4J0fRm9ETc8ipGz5XpXRgcVwIVj67gEih01gjwbKEmBxyZdQxCYuGNljV5VrOedBD2XlVszF+2TV9oU1tHPJazbIw59zc6oq56I+RTzzpFzYRPrYanwZwHDgn0KW40MtBO4DiD8gjgEqnn5d1Uu06u2iGLtQjKZS+1kt8mT6ZpZLE1jEuygkblWN4JA3mucqnzk/Invfvhn5gcC4AFgWoBEamWxiQkQKwwznwJIEgGzwLB6KiqcjbWqQUNIAYExuQwm/VFdzQYJkLp6QVLwGfwR9NVYLF1ROdB66bRrjcDqp6oCr5iii+8RdakzszdLsr1lp5V+RsaVYiMRYtvGUNgoCyeOY6nQ24REABAFBCI2RKuYUys7NQpcAOkdcIJdpAqA1csS2eoLeVYtGRFFrGGx/Q8jZEt870b3T2SiwKMRAXRExAmFGZkeBW2MAFwBjIbB7JYq0klk0HCMDIQPSQm55R4hlToIXzkFSgSzk9j2tCr9d+CXOVJ+fYVTml2NjpU/pWCb/AIW1esqZM1gYaQCAz9nGFlf+UUaBwY2wM4poCckIUzZ4ifVhGMOax9DTLciQxmyFuRUEXbucZQNGoxvQgOxa66KwYm5Vl0QSXJhi+c0IgjI3Ewm52T7uxaa8rAgTva+hFAYl2hGPHZD4oI7wVp5raPDZxRutYDXRbCQNSoW4ibsI9sm9RCEW+bGmOtNg5Q1u3kn+hbSoypj2xQ4gYQH5aEI9RIbcX1UOVuFjzqRbLnsx0Kvy2TNjeLlrqHSrsNLz3UuVpDUDetM0DVICMoWhgMZhIF4/VJgV5sSEQb8CBPzaGUleL1RCGOwaBm6SAabZoA4qSjLoUkgp4xryEyUyrCuhlEPFoup0Js+Q0ODuMcOUEqMkoGBEYNkc+NSJGMisjy3iA0otal11Ca/RHSSiR1y56RnmRBCXRRH9pWUBQrGaIWhqFmDCfWTXjfgZe3a4UXUsLiw08vaYulFHQGWMIxmIRktNQSLiCbVLFp2jJwQkRZII1ei7WSkInfiJF9J0gjkSQeQRZ4Q+5gnItksuHPiRw4hxcE6xypcma09OqVj/AApbml3CMB6JZxaMUEJgCyW+yy56hKK2+UOgbc1KzyVIF9HKVMkYNV6XAu4dcqSt+GOv8FlCQDoWXNSt7JbO8XS5Ak0BzeG5YrJPB0IVEjKhDEhqQwIMQlW2bkYASRbgsa7zSVBJysQAeBxYIDxzJGgWS1ktL8G0VOTSKH3WKfgYHRtNusi1lgvU4youzgRxN4062affmeeR5zeqFQ5OEmkQdZiVJCF6mRWHakXLiXnBgBKNCW0icXNhute0JvkFQLYHGgP+ARR5XQjZKAUJy7ElqdQbpNXp4GZcezZrpawMZGJhELQJgGW386SljNHfVLWvZ+kFsW9xgu2Ghm5cbia+J14/5mBu3akmoawUZdJiay7cBfxuVG/q5an5JDclajmJ0ms5uDzJutHdxtilArEW5IKLiR6MijNJe6xmGGwEFq1jbKoQ7faVUraGIkvqBlRlCC1GSA//AARBwAB5KovVMiVmB0BIOQpeZki06oMEN9lW1rsJwOvokdpkKBBNwPsSS42zV/wQZTAoFLYrxmAq5Ir7jvo+Dee4hAvTsjeLU+N3XI37aaEb+JJL0Eg51mwSVsXoucuQ90EBu5qnbBRAxPMu1xEGopIhl9yxzUYg01oLjgBMg9IS5imb6TAuYQ6zHiG6chCRTOtOiW9/LVUwgXmYosSwERCtelWHMtcnRCwVBdbWXbQywijJQAP3J4NYOK3btAncQe0rjzOtzEpDLtc9rNybiG3e1mHcjlzR8wpIaM0uKplHHNh3X75IkAJ5z/JKowd2YxgLjEMuJL1cXrpo7z8kUBf4fBkXYpZPkNrUM0FBWEFnHkgBRIp1jHbwcQKArgyUBbRw6qPmiXAOC5VVshUVWNzQvq4y3aRa/MtW290DJmC9IJ0BjyEgZ7jeGoBRVNkWWPQvrmrpeSyYywAb2dus568fugJatq3kR6WgnZu0OxQFWAurYA1avBiTbIYd2Je5HaroVa7kXJ88PanHPYIo37lXPao5u6c2CC9gE8xTjxM5X9gWq3vihFmMTF7g92XlBahYFaIQTSy20eeTH0uiMaMga6qryzFNajzNES0klI2p9hSyImJRMIlCVQcnYmQhERe0jkZrYZ8IYIGnBwKwusErULkJUSFBZBYxt0Utmpk4RVyRhZFbMXKWglsJu+F9FosCdm4HlLA1JD0wAeKmkCLMqjbQHYABcGg+g5yQBq9sIttJT2/Kya7614uTRC6YhMNMxJDfSIkZKEje+mVRgNnAg0DoAsH/AE7/AP/aAAgBAgMBPyH/AIkkx5uT/BjmKmWkfsezp1fRVt9s4zjXLl5teuBZNRvqWpKFIdv+7j2B+im5Gin0msH0QDzNQJmOzYh+PojcBXxu25mf0MulKACDHchT6TWD6EJUEuwzdyBrGfoMvYzW5Tt/P3cXn9BbBe5g690Z9IpZ+gDZ6qB4juYd5Maxnz9FqNBz+e7l33UePPv0Hew9O+O6pFQ588e/hmgCGO9+PwP3HnYPO0DOde/k8BvZxVh9HnW93wMngnutKRGHPnIJjwLut4X7jzcjq0Swng5+vhIJDin9g81zbwxpuz4dl9FNrOfNNoOPCbHi/uPMzB6qE43hWPp4qAhxS7LTzFFqNBBqz4fwvGsOnFY8wg+L++Jk8eJ0tfL3uY5oAQY8TJ46AlilnY8tB5VA/U8X8/AYvHHlvpccjxsPXgZGk58r/wDY58f9nAhoDTT/ACkbnaHY3j5cExePlPrZfzgMHTg9wH58n2K468D+HgwbA00/yUQOrpRjG4HNwlzMfJEyCotwz5PNyH58jgNT7TwfzOFNsTSq/IVuc7+UAEGODzdeG2k+QA8qiXrc3yveLx//AJNH+8Jk6cQaYmnXMcb/AOlzwvxHidpvGD9f4odjcL8bit5PF3nmP5w2bihXFTtmOJ2IY67+nD/l4vYh+OIgHreVErY4fF17ZqantmpqeCuZnwwK4qLe89eEmp7RoeJNT45T6TWDhYGo/Z4CantJeEpqfF2IfjhPcB/KxYx4c9wS+Fi6cFNTU+FczPgimVRb/wB3vz2k1L4/4OGmp75T6TUDgf8AwiOyantJqXy3mp7sDWM8AGmRWAF+fapeKycZNTU9mLz4HPUc71pex/H+1jidm3EZevHKF3Fapws7MAfHtRbA9K3k52/ypm5jhMvXinIBXMKXRWqRSrnicoFWwg9mrYsuf9oCVJwOTw2QFBxLWjBWWXkLEpHlWkj7P36Vb5uipYnLyDJCgYLSNBWUPlCMtGswBzq3FXuffpQcg+Fm6eNjNZBrRKXiCssXy8UZM1tpzv8A7TLIdL1jh/Pt3/ieEplatUmtlWoRTkJ83xMjneix7H8/2sVT7dzP3ssChYvS6K1ClXPn2eo9ymx7H8/2sbB52pXdmUFBxLS8ArLL9DBwkVlD/wBP/wD/2gAIAQMDAT8h/wCJI1kj2/6pfl1RQjGW0xregs5OX6KPqvfSz0WcgnK1bwNNzIG5Q/DaiKkDnfne/v8A93OH9FNpcj7+99KMZD5KKZX0QvwK6aLs9CDk/wC/RF4977+7daM9F+aOywc5z5/QxzH3/fp1pVajV/Vo7CXrcygeUfQmmlWul2D5vxR2+k11/wB/PX6DUEsFP9h/f3btPzd33xf31+grw73L7+9e4b32udj2mDjXmUZvo+gE3Q09yHuC7yOx7m8D5bev56+fubIKVJyO6LPp++8KMmaurjn++vn2v/bT7/neN77W7NO6IHV0oFeXnjqOV/ac313hHrfrs070TofaPO1TgqddMcu+YHV/PYd4VQyUO0Z++fnV7dzm+AI+/XsO+x+v0oCuLzgJOz7FKrLnwBHTdh4H2T283xUny1lxPgiB5Px4SLQUQ6eevmqgS4pZ7b5u/hCAcu18BN8z98qEEMPml6fxDwhIOfcfBkNT7R5m46Fu0hMtPhGR5Pz4oK0KADq6+YuVglOOWH78Mz03c08J5nPP99KESTHmErNb7x4gn79O5p4e0D4benl/QD/r0pFeXiGzo+OYtijBzryfLVSgKwoaGx4o+b9dw8T3Rf30rNzHll879+b/AJ4xvdweL6VXTb0/HTyu8Fr2N/544u+n77h4oOyGgHrcnynB2fLoVmyvs8fL5ndfFtHMf3yhQJcUk7s83V/nAG99rHdfG9DDmf5+PJ7g2vQbev44H87uvjEMJo9r/D5KrzLDd/hrTsykvAj5vy8J60nLn5I/SCStL+SHLfq8EY6Pd04D/wBDD/PI50lmfP7X4Mx0X44U5jUNxvkJ9K/16fmlVkXBmA5HdOB/8FHf++QJRATWtlg2NDhC1u6cF/7bHH35vX+zBwgkHM7xwQfGovncbcCx/p1cHvwok+T8994L/wAv3jMcZg3dClilPs6HCier33g//Rc3/vFKBLimkPzN/wCOXDCfW/D33gyucodncTc+xfsbeuvLrw4n0Pejhf8AwMf94hOruw3f4a00eUleHF79rnZHaQdsHYio4H1vOfP+8MnSClaX4iw2P65fbThZNFHPQG5eMR4x7T+SimVwt8Lc93+NefTgZOw5+wgO4c+n78eDsR4noYcn/eEGLY8m/o/NKqXL4nK7KOvZQeCbnPgoO0jwbJzH94JuICfvm6VqZ4NjQ+9b+BNU6jrwEL/tpxBHeJetzKB3UcDf+59nIwert2wvZTqNRcILerxMHYjuek11/wB/PXgGCFqW1tY51dwbsnuW7CDibfU/PGW7S5jNe+L++vA37npZ+P3Wt6P9n8q9I77Hxj14gR0eOQgq1tw52/2pHPQ14TOjdh9y9Xxltce+fzV/eav+M/FIjDnhLR5PxxWcHoVkwHN/k1/F1ux53/ygIAHEgR1Av75q/ObYf35q8B9rFn2mo5Oy24G0HLhsmK+wHxQcj0t/awDPO/5oAsY8g6kaJq/v3R7P9q8dKs+z+lrrKIjxS7HB/wCPvzWSfJ9+9ZT8H37+UjoFtlJq+h9l7P6ir97gfNvmm/Up4RkOTxgVgzWGYc7fmlYzpf8AlaqXN/lY0enl4EE0v/X2/GPiryDs2f2fisKG+nuW74npvCXgq8q2Ic/ua/x/v9Vu5z+4oqCBy83vBbn8Le5Rrzcv6P4V76hc9zuCet3s0PQrJgOb/JrV70t/awRXnegBFh59e+YFn3KfeLl/R/Grw25/C/uULOU/jsy+r/Wn4/tA/gf2sKz7/n6Gelt8X981hd/0/wD/2gAMAwEAAhEDEQAAEAAAAAAAAAAAAAAAAAAAAAAAAAAAAAAAAAAAAAAAAAAAAAAAAAAAAAAAAAAAAAAAAAAAAAAAAAAAAAAAAAAAAAAAAAAAAAAAAAAAAAAAAAAAAAAAAAAJAAIIBIAJAAAAAAAAAAAAAAAAAAAAAAAERAAABBJJIIAJIAAAAAAAAAAAAAAAAAAAAAABAcpAAAIAJJJIBIAAAAAAAAAAAAAAAAAAAAAAAAJBIAAAABABAAABAAAAAAAAAAAAAAAAAAAAAAAAAAAAAIAAAAAAABAAAAAAAAAAAAAAAAAAAAAAAAAAAAAAAAAAAAAAAAAAAAAAAAAAAAAAAAAAAAAAAAAAAAAAAAAAAAAAAAAAAAAAAAAAAAAAAAAAAAAAAAAAAAAAAAAAAAAAAAAAAAAAAAAAAAAAAAAAAAAAAAAAAAAAAAAAAAAAJgAAAAAAAAAAAAAAAAAAAAAAAAAAAAAAAAAAABxAAAAAAAAAAAAAAAAAAAAAAAAAAAAAAAAAAABi0AAAAAAAAAAAAAAAAAAAAAAAAAAAAAAAAAAANVOAAAAAAAAAAAAAAAAAAAAAAAAAAAAAAAAAAMl40AAAAAAAAAAAAAAAAAAAAAAAAAAAAAAAAAIAuD4AAAAAAAAAAAAAAAAAAAAAAAAAAAAAAAAMgIOcgAAAAAAAAAAAAAAAAAAAAAAAAAAAAAAAJgBQyRwAAAAAAAAAAAAAAAAAAAAAAAAAAAAAAA6ALMSXAAAAAAAAAAAAAAAAAAAAAAAAAAAAAABwABriSyAAAAAAAAAAAAAAAAAAAAAAAAAAAAABGAAEUSSgAAAAAAAAAAAAAAAAAAAAAAAAAAAAAMQAByiSToAAAAAAAAAAAAAAAAAAAAAAAAAAAAEQAACUSSXAAAAAAAAAAAAAAAAAAAAAAAAAAAABwAAASwSSdQAAAAAAAAAAAAAAAAAAAAAAAAAAAOAAAMfCSSXAAAAAAAAAAAAAAAAAAAAAAAAAABGAAAAj2SSSOAAAAAAAAAAAAAAAAAAAAAAAAABuAAAAAQySSSUAAAAAAAAAAAAAAAAAAAAAAAABCAAAACTESSSS4AAAAAAAAAAAAAAAAAAAAAAAABAAAAA6TiSSSTQAAAAAAAAAAAAAAAAAAAAAAAHQAAAAFSUSSSSVwAAAAAAAAAAAAAAAAAAAAAAIgAAAABCSiSSSTdAAAAAAAAAAAAAAAAAAAAAAAiAAAAABSUSSSSSqAAAAAAAAAAAAAAAAAAAAAAkAAAAABSTgSSSSSqAAAAAAAAAAAAAAAAAAAAAAAAAAAAPSWCSSSSTAAAAAAAAAAAAAAAAAAAAAEAAAAAAAqT4SSSSSXwAAAAAAAAAAAAAAAAAAAHQAAAAAAISZySSSSSdQAAAAAAAAAAAAAAAAAAOgAAAAAAASTGSSSSSSSAAAAAAAAAAAAAAAAAAIQAAAAAAAKSTiSSSSSTYAAAAAAAAAAAAAAAAABsAAAAAAABySUSSSSSSTAAAAAAAAAAAAAAAAAAgAAAAAAAAESTiSSSSSSTAAAAAAAAAAAAAAAAAGAAAAAAAAAiSUSSSSSSSdwAAAAAAAAAAAAAAADgAAAAAAAAASSoSSSSSSSYAAAAAAAAAAAAAAAHAAAAAAAAAICSeCSSSSSSTYAAAAAAAAAAAAAAAQAAAAAAAAAySSwSSSSSSSSKAAAAAAAAAAAAAJQAAAAAAAAANSSZySSSSSSSSYAAAAAAAAAAAABcAAAAAAAAABKSTOSSSSSSSSaQAAAAAAAAAAAAyAAAAAAAAAAKSSQiSSSSSSSSUwAAAAAAAAAABEAAAAAAAAAAB6TB3wSSSSSSSSRAAAAAAAAAAALQAAAAAAAAAAPz0fIT4SSSSSSSAAAAAAAAAAAMgAAAAAAAAMngeJJJJPvgSSSSSTIAAAAAAAAAAAAAAAABFKLMAKJJJJJJBI4CSSSTIAAAAAAAABOAAAAEBZKAAAABJJJJJJJB5GCSSRgAAAAAAAAEAANTGSAAAAAAFJJJJJJJJJAv1CSegAAAAAABAMU3oAAAAAAAABJJJJJJJJJJJJJWIXAAAAAAAO9wAAAAAAAAAAADJJJJJJJJJJJJJOgkAAAAAABBHoAAAAAAAAAAB5JJJJJJJJJJJJJIIIAAAAAAABI2sAAAAAAAAABJJJJJJJJJJJJCGyAAAAAAAAAAAALOAAAAAAAAJJJJJJJJJJBsXwAAAAAAAAAAAAAABgNAAAAAAhJJJJJJJJBWJAAAAAAAAAAAAAAAAAAJRlAAAADJJJJJIEvcAAAAAAAAAAAAAAAAAAAAAABdkAAB5JJJJxeoAAAAAAAAAAAAAAAAAAAAAAAAABUTAOJJPyHAAAAAAAAAAAAAAAAAAAAAAAAAAAAABAa5j0QAAAAAAAAAAAAAAAAAAAAAAAAAAAAAAAABHpAAAAAAAAAAAAAAAAAAAAAAAAAAAAAAAAAAAAAAAAAAAAAAAAAAAAAAAAAAAAAAAAAAAAAAAAAAAAAAAAAAAAAAAAAAAAAAAAAAAAAAAAAAAAAAAAAAAAAAAAAAAAAAAAAAAAAAAAAAAAAAAAAAAAAAAAAAAAAAAAAAAAAAAAAAAAAAAAAAAAAAAAAAAAAAAAAAAAAAAAAAAAAAP/2gAIAQEDAT8Q/wDk5iALqx1EEUFET2I1U4ZJQowFrF5yIn+KrYYyQp0Um9CODkkMcfqNEMMHvnzI6lVcVAT/AEJikM9LVMSUlUHfJH8kianzM0EjNDj5C9pF8pgxWO24EoFMoUfS5gqRYZpq0n5DcBHJWZOg54cICAZEslTmUVmpgVnAAvVml4NZjlroID0Uz6sIFeeE7EMFB+ZBTDERwkoUfcDuJsLlw8PstncCQYc10xC9JjrhIcNUVSLWsp8sbpCQgQGnaOHNSNK0by4Bs+UNLyjYaAUQJiBaDpFypzK3sIGEoW6AHy6bNQCATDEUQ4T+tkyJ4v8AQfcYzkBexU74HwyJIVm5hUpFHdA06zXGX0qARplPC/fyGrgqp6clTMc3I1xJx5LEXaUavxVHirGUSQELFyrvZP3vfknufPZ11MSLEmaklAKGNamiWyfAVKeYCkIpY2KDKHEJWH5k5VNvTiGwk1DEqFFRuyFfMyYOYQOqNSOBgcqrXsRxFDsXCL86GQwVT+ejQ2VQ+hTTQ6o5rqx0zLVfLOGEANadzAFkAWpXSBuxqAyr1hWJruQqRI8iSQNteCvI0spAYYbtLa6IFV5guEW2CFEcQyYIMTalRUAduJClApeBRWtyJDJAe+hQZYCLWBtL0mHbH2ZG9GTYTTCkfdjqSHE7tOwFK+kaIhsALLJwArS+lKIksCDDBwiJQJWNGFkiVtxqkMRmgQugrZSlSJn/AI7IBSSINxorSmglYjJQZe7tNHYEyI4FCEnG0oa0Ed0JVaohARIaUsdFFe0DkMwSS0rRQwuQkINvZ3ioaAm4jI2IKWgxssCUjkKx0hA3R7ILJIrew/L5F5S/+wNhaapN5B9YLhBwk6DOJCNsLB+BgUD0G+rPRc8/xhFdYyj0nWa/1+oXCnlGy3RXeUSyAwCtlC7KxHtvbQTZk5PELsiqQ0bw8gsnMKQgHTKzVIVW0AIpRoAZqsOqYoAApywo2zJyUMiJW3FxeNGBMwuQoiotnLiAsvuFpGqnDJKFGCkZmJoeKEOPuwcCU8VA0LgRarYABDqsGP23EfChRY5AFigAIbU0zNI1U4ZJQowUjN5zp8AKbyriJOXa22HljF3OAGDCJ8ZttttttttttttvRE8DaD6LGLd/49UihgMl9B1XWqD2wNCHbHDLop1wPqGhjFpAIfQ6DwW41oAgAVYor6ASO8mniBaKBBmkywY0dkdR8mwfLYS66X0Qah51eYPID0UFBJO8uvlOJhYKmJnlgg0kkJVWLgCiEn/oB6N1kCq01GhbD2XylvIvoWR9TaJ9loVXeJBwYBUMUYLFYVWVjIrJEBiBkwavJDk2QrxnSGAYQ9KimqsmaiaUAROlxJs1tJqOpVgs8chmfaKmfoTK2Vf7agMIAsCMi3FtemEarIVr8xbkJaRDgQxioTgujQWrrFwqNC2VmKDssOLRNXW12RRZZSVVdVoIIWFiIACnSol9LqTA7D8kZ+hIh7eQB1SEM4aT9saTAJfHmEhl1MDDBAYBJoCUwJgwUrhhOsXGwIXIoQ4uYsEVhJcHWS957CgtkBNx4IZGhDVjx0BuS+gjUYK6Tm5kYGn4HCFEO8T06jmZHb7kTltm5Si2R6ZNEzHyl/imNEaRCIWQJ4hglliBosAZHsjaB3mJggZE1Q/Y2xl949dWERgHafbzgCiI/QAD1Xk4NJIL6DRHRYbSMk6UGijQE/14fcxQAB2oPUWX7QDJudFG/MzbIreDOIMNSiATDMSBTgEAliYY7AjR0BKKSjjEXVxkd4qGGkUR1foDBhmzX0TBFU3DmQmo2ZFxmGfc5PipYw95EpksQjLco60INmSBWoAMkmMTEkk1suS7hOeozSpSuinwfkEt5KrO5fPn4Zk3x6kkFy5awTXFnAkFn+6jn8kBdNhzKKmBCJkIumZisIoBYSDFIKCxQh4ym4gjAIe23pUYHIGOEPWBpUXPoBxZo1LBwIZ3gWyTkUfPDUKXEm3UXr1gwGi8sScNAcd6Uy0btIllAkSVBcmmi9rEhUAAEFWOSmmQ9CwRuCxEC7g/Z3gH7BZyYw5/cioAMJudL53KjAO0+3nAFAFplLEErzPHlVOwmMRak3XZxPeVagyQxRAUYIHZIDg4SSUjKEN5gYYd4bwssBdYd3hTGAx6sWLMAYJ86UzYrxkU9ugiILIsGtMPoeD34kCBBdjGiEFkkQzq6dgwnbJMmBSSCJ3lHx/ETtQBI82U9QTwUVa0R3wF90JRtESCiMnnEyAX3EHO2KVqlaeNKLY2pSPgFHAyrSiJxNJZujcqkFaEABGiQtrSJvFDkgKhPsEWiqGr3hWZ/wAyArOmzQU4RXar4EjAP83vsdlaWiCDUHLsMivNJzcIWmVZyvPNxQ0ag8AjAlGIt8SKiriOxFyVwFwUqAhyhMawM3BhzI2E6SAFbTv3nqZshoLxBd2kXNCCzWM4gXmyCbX0tCxR2mMZ8COtzJ3hYgp8FBDZSDNJB9XfCNQgMkyxo5ULrCgWCnR5vLgboqBxdAgIO9I8lc1olQEXW+F+hm29Sp3cHLzQChPNBo2EA+tDgGqQnazFJ/hAI6FMt0wI5FJahVnjMCzOwkEuSGLxRuwYlGrrE4OSwsW76C9rftMSCQF5VnocWpKJNkgHzOq8jZ5H9jR6MlDux24CVKxoobC+6EoWiIAACDwf5VoieI6hpJ5GDlhqsz2JX9h7CuAlqAgoYCWEdypqFwqYazgGS6rR4K7U7YhFzbJCqvtiFcOlOCvzHqpfdCUbVEogBLUljsWc+0JbykJ1hIsjrHakd/Cem/eR8s2yAIhxSxIHQVQEMNVRgBDPYQQLXWQYJScIwGJB8BVpqyRXF78k+gGSJhGmyVAJp+Y5prlViKE0tcjqXkfcBPRRVoA+H9jt7Id90t4J0qx+q8eprY12fbrL5ARONrLsRbwlw4TYQVp+luupnnPZt8kXjCfl43nGSP3sANOjWOls+NNcia7fEl8CCaIWwBt0g/haDmH8SSGT2bc2ojYxhQpIRAweEcBv8AJK5EREav8AfrPMMOFWwrNgcUlIeRYUqz8tWCzxyGZ9iq4q/wBQrIG/GDKfpqYnSB88mU8Z4aXbIMJfo62UhKEP3t+G3szndvazN2+BBsRUBKMeGgv99XpKspTaUl9KJSICaGL5bkCrsU5MAxgpOyQ7doKAAhJm4LxRrxoMMroTY0lh4WusbqlFtni8hCDsKiJQAqe3shqhaStWRiVqZSJ4U8OHsKAFXGOUJ1iTd/xzLOyfK48gLhIqonK96Ncsf+BgQDdHXjGaDR6+TpDfyBX9gp1dOrGaWdoWna62n4ZMwDaCAMDLDKIeBgu86SASWI8N1KklQxVPUIiNRuVxJTXXiYKRQWjaXJ1BWBAI8oBMr42DqihUqJmDDrSMJ6BiQnpJgIuC8QAAeNEHRKIUqDMsSzYp9/M1FsYJYx2wMGVJkeEbUkqCBmnWbWpIt3AADFkAQeJapnWV3XmGmysznJV/dIATpD+UJJqYGmjUCrogRfAljwruSeHDxuZizGaTZJCJYihFDCMGWJ9vJ4kjHamqkWJScMEYCSZohQqgXNagFA6oTSPFF/Nzk1TU5GpSXhu25c6Q8nHqyEt2iLSkqd4Ik5iHZkAkgingPkruEWgTcgLzAxHcJaFqIxsJFw3Q5lPPgW2c+iyzUuBNg8VD2LXZS+uUhFpYtV8SBEV+vlalqXclEryVmF2gHqjNOQJZRtC5WTPbD0ALB/A4Bs2ByFjA3Vth3NKRGxQsIiAYJKTFh8UMIr7GGM0OojpJDTiw1LJg+SUA6ZWapCq2gQBaX6YpOn64b9bgo+Ux6wPhXmoA4DE+IjCYetCCU29y+S9CAJlhDQI4hTxzeWoEcDZXLLmQqTQTAZxp/wAjGD0OCtIyzF/KABMK1uXgvqARwWwgLykBuZDPzKqYce6C5EMAAIIi7jFSVB4wyBiR7BOxHj2USUCOFL/8Dqc2AzpwhJBbAEPIFsDRJiOCLKTepITgzk2QQi1ODJIj8YMCITRiRIA7kBgeWErDykAEm6fAFO4MsMBcMIhrM2MuuFGJpIfIGs+wAed5hhZOCTjOMo+rEMyyqB/faPdrH2VglKV4JAykO5QY8TaSKO5EMHiLCyEExEHEKaBAAQFBIhIiNngBcDlExwQwIGPkBcVnIjNV4960Evi4+uz46UUATE2ghhh1IwuDgnFZuUaCIAFWKhalyFGVnmQyze6iYobK0otvRvIDLVglqALFAg6rmxjgIyyokfVFkilAEjt+BUK0zvO0BYLPHIZn2ipnjSNrIKyVEMAMhHCDkZNLyDbgDwhQ3h2mn7eukNypSPGhp4AkbDIu90kRBFueqAURqh2mmby9oCLvbHMWsBAcAbdpGe6MgQAa0qgYk7FScYzLi2yOeK8ZKFVmCod1PtfAC5Ugnw/m+ZtYwAAjhORi87OsdqygpIxDjlrqFx2ZW9x7pxW4MIDcWQZGIAlQlLArCFtpAC6xYcxAcCIkANmDpcBNXQ/izlpdIpqDxQVOg54coAAJVsFOUCV1NhJLVwtihrzH1ExphJwpIv1SKeLM7JayIkwhOW7QLCdw2Qqe5Zle+y9VtsXDdKvLB5xsqixwLq54Jj732V3gjaHUqM7+cnAbt0527PIN8RX2lDxLxDZ2SO34MrJ4Uh17kFODhYUeGs0k5AKzSDBwrGYejadG3ns3evdQREERESRGyI2RKkMEHAEdD0BUCLgw4MVUKuX6ngZJaCUu5MQBIVPEZmO/ciUYZNbowpN207lJ3t9wcOyHIEATIkkMa1M4VEXEZj+IfNBGQLtKM4RVdWAGVYqTpJM17KwNRU/cIkg2CMLJjSLwOpuPkmVvSoyCigKQwIRSKwkti9A16A7KI5kRROCkZPuEwEdYGzo5jGb1M6EWRFw2GWDBL9RIHgA1bf1xy1KnrJakrzSAIGE1cqmFwqxpDUZDNutO9h9DMuKgVGwN078xSO2iWgCKgSQtzihLKChZxSXihVgdIZHB5Ol6A6Gb4hcHA7DGpCjEwQ5ZRHUOyCDmMDhkNdi9CcUltsU7EksNLKPhqBJMJkfZ04IwigzQDvTWGysxYSlJA2EgqGDKdXgJEuTmGG4UrBYwMDCMeSKkiMR0WTx40mKJmHvl68IExtRMlkaHDGqTTKzVIVW0CIjwubUeM8ooKkYV8nj4cZh12yhPBX2hlzRF2kW9MSFoOyyAGqF6ckotD0z9rYWzpDi9AHkJBJcw01CkMjLIsqpRebbWl1IeFcqZ01aHvK7xcgASmMko+I033GGMCohBQAAAAQBYAwBoHgImcMAIQkAwjmriMIbMAsEcvuCSbPIQwAfEASazpU8yYOymUXtuUiSiyiGlmRshhbBslf0URWDuHMmsmRjxH9BsWGYI7DDHdfZzVlqLEl+EAQoFSKkG5iy0i9qRZOwbJr1QfFy23Qkl04c6wcgexZDrzCYKWlWLoPJ8i/5BDyoEO2DReZJYxqayvmqaIgqIkdVI9WZ7aTHoi4iNcCobEQMItSXZLsYidXmmPzPmlMdyMWt8iRBQ4yAMLAf2uRMvg1B4sy/k91gyWaao9dDTJu1C6QElMwyAGgzSOAkpJCk0QaEgyxglzI8igIyYZMGYbSAswsNHQc8OEBQDIlk8JZD3QAL7gJkC20goJYWSyoWOBh3iOBsGAToL1CjmbordNlMfRB23T3uX8YSADwTDKgkjKCHSgkBSFrKnLCmZtJMP2yIKwSZ/IWBDdZGCKs2XIGBItvMzoPM3QE3ZcBNj60xSNwxuJiJdSxqpAREAmZnr2MWi8ziPBtNZS5Kqrdv4MghAoyahwBqIRQa0+IPKqh45HAXeCopSJbdOYmli+W2Mz1lDzjI3pAMb+0QQsC2zgIAgkEdCVCTGKzJIPFgK6go6TOKyFbEAtEdEqNl3zaNACNTjp3XLGNsIZpJHBN1FhfdCUbREgojJwI1VsbxrHIUB4BY74a4OQicd1yAy1g20mkxYCulDC/RNaxcyxC5wRKxfKWF70HFpnZcwsm0eYzoSLb2JzzXkuURt0tSL2bVmmDjRuDGwUbLUIAs6heQt9oAhQAQtGEFg28YGB6gTeQrZEyAlwaD/AICIeVyIkJWP6A+OVLRm8ZzVg/bSQxYWpuUKWsx16yRW4GDMYoyVyh6ZzivNBIshSwBJEi4CyYb3ZvO+JoG7wSHKheasyA2u2CqEePupEH0eYqhdWWt9OQwbSi8dWYYvb/wllYepeVRI3dvqrJql2Zmp+aul8NkZsIjWbLhDRL2FDMumrgYJ1b0wkiV4nUpU13X+UgFmwZ1qyzyEsbWZiyCjI3po/wAS9RiWEdODBJWoviP3jFA8RN6ZIJAIQWHKGxSICB8MkRCBAhhRF5iyVg7KwisBANQ7HqddzxpmESXYm3hdojzOGssUCAAgKCRCREbPYPS7AI9aUCoVQ8zo+GL774x4YD5B9PIKEhDe4khmPoSWKVz6QFqnzUKo2/koEjAyJXDLDPY0FvepGFmbAyNTuQCwIKKXSDZ5F/biESHRARogiQL9My4tcjKwmgG0HLASKvLSCqnYG0Ab7yGswTJUo4ykl0VHfxRFRNfBh0bSVGCcmFlCHojKOuV1H+XL+PBhpQp8DBZHZSYqK39ht2chBISCl2Akw2xZ8LqSoIi1OdEwAPJCFBRIHCYpgA7F2RuSUGF2Ei0cKW/Dt6GoFwOA7ccaocbmO4vHcDqlAikimHRtfdAxBJYXE3GRlRUG7DWkO41bHkNrnpFHHZsrjS/KlEnAirEgjlPl2AhVaY2RFRLRXsywa0ro+uWfQReJAXjL0VoeHBF1gzijDgCjYsCgEqBKFKBZ7KDJCiII8Jdy2wjL10tMhILjiASOO5lEnCFvbNqDNVAHBcJBZMLMIKNiQdHpSVB7TdQO0L2UwYSVrGdCf1yw/Pw3MlWzRJeKgBM40lEygA1u2O3/AJBrpuKVV4YRJikRjWJBIRq0jACh4mwwKeFWsfqlYGR8a8rZBYKpqtr5YJJKeuDtgyAz2EsWg0Y4BhWBUKkiCljgQCtyoiAASGWYLOEF4NOZIy26IatFB9Jtg5GLEWU0BPCgUQK+ErNBA3A0QojZLmGaZn0ddGy5EIZDknJv5Iqms2IkhoulkuSlRoQoJEASxYGy62VgwHGoPBbjWgAChEioV4rcAnjVARIEigeOSYDGAvAo0WI4iO4DeEkhVJmQKEeoe+MWMoUhtuTgEJKTcEKkQACABAQJIiWRPEwTukL8oKiJMlRIlgbI14CiNilsvHDMaA0ShkBMjQRDuxwnDuSNQUGIsvYv4CHCJNSqKHKRFTY1BgikVMtB5FIHkqBUNlKryEMCjojD1bMBC0mn8LTApYBVoHbHFIoUgMCA8lRIgk3Y/wBYMASieHB60wmEwVEUnK4+kSRT0oSCVi7jIcu4ZlHwJQoinSnAZXkLzEShj9ix2E8zq54P5ryK3zVanczWJ0EpigRCLmb4ibAG9KIHI0PxQUMDQSKCB8Y8Oat36MSTRiHqBCaYIIfCpOys7dLjcGHVpBqVDEqhvHnU0qXVLVCQNAI0cDwh1lUFOSr5Y9pwvZySAuTOBceCkkjje2FESRiAjcGuRsaStMm/ChS4JzZguhR+V+3BEiVUgKEH6CCNdGORcII72tJphfJCfaOGIUAURFQFDInYLvANhsWQFEMDNp3ipmC5JSXcbPSFjFEBeA5rhFSYYw1BZTiApIMSOWqQL7CzA3grFaIUWh7KJm4QZSEITJKURIAHAw/ZPNOsjE3LjFxtS7jglrUiyM67sWakyN28PTG4KiKQRdSoFcuwRaJso5i5ICpJYqgCGBYaqBxlogc5dF7dHtNhXOsNCa6tt2bLTcTZMO0BMBQAEqMAAXaITNklImyQgAEqA0nkYRC8wB0VN2aWS/5pEDAbgMDMEWo1rboLqQwAQFiGnaZgArRQibhk0JdYUQhpk5lCpIaGw8BFA75ZoFjPnkslFu30sTiMIAREgHYQtJc2w+pZQDqKuYS4tRQ3vS4jU6pFohBUZ8y+YjOaMMl4UNEgaA/6YEXUk3x0zDm0LAjKZUY1D/N5syrpKie1AJMANroEwSCtVwLSACGBlggoQ0u96EWHOgIA0CYUReB+AAgB9BtCMPShupTGyYtVwzLb2Iow0S0JwvuD24awRnoVo0TPcGcKPrmYs2tQctYmRbAAAAI/6d//2gAIAQIDAT8Q/wCJAgMtyI+UJcyJNLEZSW8kHVaPnyZfRTQK4ikNxrVzQgMAFzryWHttrK1JkhBpEygqhRS4oopiymz/AN3A9B2/3qXOXr9FF5Nd+/z6GtJMLh2dGnxQ0fRAByntzpkGdfb7nnyjstlZvz/x+J+iLbbRt/5+elOE5/xT2Wd1TluemnL6GFndnq/fz0aBWAU4Tl+6ex/q4dnR+9KaFDQ/Qh8srfkUfJAX+/vfPY4DdPyU9ttLXqN/T8dPoMKAlNqAzsz0Pv8AuvaojuP32HYgkOKXrg/Z6fj6Ct5sDq/f3juKx97PYdqPJkdnT/eVJxgsP0ADWV2x/tEHBR3Ha5v6/vYdyzVj1G/p+Onn4cJaCj4lqV9/eO67HJ/XeQSHDTKG5/Hp+I8+0bofz9/3vKz9rv8AOzXusXzDs/dnlTg4DCeeAwXZX6+/3QsYJB3lINj+Xs170pBc+Gj6YeXTzsqpaKNvG7d76kNg/E9j3gBCUXpFOd1y26n8dfOrIW7Dof370PAUrzPgDse+p0brn/HDSIoDCecNCXvd2+/1QAgsHgKRz/Fux8DROX6P6fTn5ucV1d2NWg6gPd38Fy+7/Pad9EEohKcal1y/ph81BULrQRNiXkaHhKTc9p4ArpXXPbo/7pQUhAb+aWwu2Orv0PCcrsPcPBhYLNv0f0+nPzPEGutj/aFKAg8JS9n+HxXByiEpyudbn9MPmIcJaAoY73Fz29PDUdR3NfCKFufx6/mGkVDZPMI0d3F+3p4iheR8odzXw7NXex0fXXn18vMB1V+vX8UYOAQHLxFHMT8+O5GWQ0j5wdzT/eflpcSkFZesrd1fFcDmfw9x8QOuP2PX8xSIw58ssxasfsl8ZWftbuPi20veh39fz18rtre/gdDLQAQY8Z2H2x3HxUxSUNP9DDuaP3r5SDly7sar0ozYD33Xm+O7XJ/XdPFv51TnueunOsWc+TgrBdaKLtTyGn9c+AVj73e6eNbq7fl/r89TyezF2113dD89OBc+lwZxSUNJMph3NHyWygbvb+nBQFQQByOBU+n+Du6+PbfXOZqfzn18kDEogDVaPWtx7u3Qwe+vBOep+u7rwFlL9+X+s9Z8jtzdg6Gvqwcr68Gpbn/PChxJfb6VnxH3NHyGyrme+3U/iaBBAIDlwalub8914GzVv3NT9ntr5AfcvB/ehl5VmxLrcy/zYg4PF3FLLPdeCttd9nb1yevH2csWH7JyeUG/CKE2X47zwWKg9tn0rPAe+z68bZ+/rjQOhl9DXhVDfdHfOCthZ9zb0yeu/GZyld0Gq9Plg1oTYGOu681u8Kobvjg7NXfZ1P2f5xQKwXWih7A8hp6NefQ4ZRz4/J3zg8uA9nR9KDiG+314m2N+3cZ6NHPpw7hm4/venhbOW78/8Z9+IJzAvtf04PfA0LAIANA4d2uX8PZNQ7M6leyVc9AeCtnt8nU/nLpwxBqAA1XFDRDee+w5GD3y8HJ2E0imkR5v4qXwhTshanxkmFw7OjT4oaOFtvasdDXqcHKXU8eTsJ3KaK7JVz3Hh1/XjSmKHQaGfEtlZvz/AMfieEaYNhe+3q12J1igABALHhSdhG9NFUpWc+C7f2vwQijfQGp8Gzuqctz005cEI8vB/XkF10K0ErruZX9bEGnekpoimk6k8dyTY/l4WUo30Gp7z3Vw7Oj96UmKGh4G2Vuw52Orl2sb1NQpoimk6k14Ry+QcQMYqVRoR7ltLXqN/T8dOANy4QAy6SKW1d8RE1bXGix7kPZSvEqfR/BxgijfQGmEhxSdcH7PT8cDBELpY9mY9Ipfy3Qhgz5j5z6LxCnjkPKHNat1vK/zj5pIFEyK3HoT+eE9B5M+5J8VBBN7H2ZH3KsxyP7v6oAkFcIpfn/PFHyBzQrCKuR/YKwjOrPwR+a2C5W+c/NIy1ed+JYnlY29TD6lQ25R+iT4Kg1bZg9knulAjLqInucCpbm8NhU9b+2a1OciD5j8UjGc7/ytHHK34ilVlz5B11cT8ZqxDmT5C3uqgeqST3P2Fcydofx4qwLscHqM6y+xNZQPY/b8VZgHu/NvisujrB7FvKObIxR9yoA5DX9yH3moHcb9hekCXyRfUyevhKG5vx4yglQVgVeV/wAULO9WP7Wjjkf2a+VR/Xl4JUGpZqGOh/db5VBod7HtZPmsj20x7kPx31Dc/wCPCOlg5sVuhyJ+cfNDj339H9rAAcj93fmmJRc2fNsXM1ZX2bHzc9EpcLObn5f1UATujd7MT6T3FHT/AGd75EEKyJXI/sUuxnVn4IrKMOVvxf5pCUrz8+hQx0fwMh6RQ4Gm7h91n2VYT2b3zZ9ForGGPyPZgU9b+2awFOkHzf4rBRzu/o+K0PcrfiKzdz9CxLds29sfFZFHW3tj/p//2gAIAQMDAT8Q/wCJEbkzi5Lc5iNmzSicyICwJs0A5tgR+irXkU8ctcyLIkUSGbY4EK6PI6MXEiMlAAIAYAAAlwAk3B/7ulNNDz5m4NnZ6k/RKcVmAZJtPJcG16MmJc3Mj1PZh0pR5OT+PMbJv9EJbBz1dA5v+tqBJhBpEhjaLHLmsmtXiu5ez0w6xu/Q+K1SFw5f90/oET+8D2BRkzVxsJuGnqw8x3PoZMaCOg/3X+DT1FaV3WhA+0C9hzWlvYbmT+bMNNfJkfvUw7P0I/QAsOroft5YvFPiqmJ0Pv8AhYOyZNhfI/dZU57LhXL3R6dNH9PoNyoEquAMtKFRoObz/L6G57JJ7J+D90Zpz2CjJZKE5Yjn2/Zznl9BHgheaNv284NBSqy57egGe/8ACjPcSEpsNzJ11OYU2UMjyfv0+gEkJiHd3jlJ1YNab1XO/p99e50IHuv87y9F2Vtq/Ift5+fGWV5FPlDQdINf93VLPdi3yfb/AF2OO4ASAyPOgJzCeenQPmTTz6ZxjM3/AI/Mui70W+h7D+99K04HdZ9TJzNpp2QAiajjzxUZHB1Ptj1bxFNErlefekHdvgfrsO8vVdKtnL6snOTU87uoAeewc37tSiN8aRo+/e/fme6fI/XZh3jKowiZEw0RcYzz3OWR6mnnWuTuPsg+8p4EQ5L7p/fggjKrHf8Aoye2FpIgAiajcfOEBJx1Mvr+Oo0iSUyu74ER53uT++zKnPf1DdT7v7nqbebskB2PYPv82pAV9kaHp928HlSXsOwzTnvh0RBEyJcatZLR23dHJ7ZHzVE4ElXAGVp06VPkfb9T4XIkHsdhmsvAOOcB5b9cj1NaMqJCJhHD5po27h9Dq/ep4XO0Hu+KuFZKnbL6MnKTQ8zQ8WRqdDYy/wC0xBRLz8LmafuO448F2VAiaJiomA2Ow/Tk5cx8xPEkq6BR8U5Aj9n728OA8z2Z7j4QjNZDy06sukmtAnFEiYR18wmrRkOXT05fxh8SIc19k/rx16rMp11dWRy6eXq1kCG275aN3pToqlV1XPiTPsnwn77hjw0KViOyVByYjYyfs5J5aPRJX9HNwVYobGkGA/fPxZE7N8j98Ac5Yg7bfZheVCASV5ZzoaYP8mBzv43S0PdP53TnxL3WJbr+zR5WDkkLZxvIuPU0qst18bpIPv8A47mVOfESmGR6frRNS1WblsNjJ+zcR8pcm3Y1TBzX4lpjJmcg0HILHjjqPgH+9wzWXitI4TkdPRry6FCJJjydEgAlXQrIRp8x645OvAQbh/H9O4Z8deazc+z1w9Gz5Pu3TMriWjq26uBET3/Qfru4eMs8Tj+dHDuVhGFzYyPT5IdfJYRHrJLfk5LalOAYR1XgYl3V3Zx49yoUNi0/R5X0PJDOPIwASrV5JJstz3H0NOCgHX7q8KuPbtvo+uDyjn5HJ3hJOdHQZ5oNHg4D98O6Y4BnYeTnuPJLPKsDxjUdR6PvnD5ClkIo7bs20boN6fooVW6rdXrwfIwvg4Zc2Fh9g6NOSHTyAkSyfwG6tg1WrZIo0jwfldVXXgwVgzQADAd454G4Nv8ASPUw+jq8fm/cDAWXndDRZb24TmWXuneypzwLL3Z5JqPJLNIvZ9R1HmNnjcIlEjdLPJ+Q0HC87vxu8ZrLgrl3PTCPRw+jg4xJ7fMfBzX2JcFX9ROwaDYIA2OFgHX7X/XeM8IuPJQ74DqMeh14pAgAlXAbtSDSIN+p1xshhXhuQSX3c+KZ37GiajyT+5KQ2Tk5bjzGzz4mfzsGrc6zfZbycNEOzfr992GpUklQ8Hce/b2T0wecO/ERf9Q019xbWylL8YRlVlfvGnDzbZ/P+lBNE96FXVRVBt2LU7KWaVLgbmWQ3DT9Oa+pwwPnEYAJV6FJ2Za/dfsIlA4UwhpWYKNys54J7v8AlAGPCQc0jSlU0h8XKMrm5kevww6Uo8nJ/HmNk34WRvES0LnQr9AyuBMQaGzBQNVA6TRjAdy10PjM5pblSqWVD4d5rtz7PTDrG7wilCNH5BtK05hkGnDq0q3Vcq7vhxQmF+KEzBRqGg9KAwB4MG6J7H+8Epkp2UoqXgCjJmhl8JuTT1a8+pwU/wCZO+wbpANVCrRSo0DwdDLqnV3wXF6NM0LlCjVLQelAGDxoE3f44Ug5pDil6UoqE7ulvYbmT+bMNJTDI9f3omjbgcjLpMDZed3QXIMOwwBaH0tRqIffpQOVaMAKgMcHAm6fMfriOVLUzxSyoe24Vy902dNH9OAO8lwwWoDDLCwErIhU6J6D8sPVoLMtGIHEn7LK4xFkpDillAk2B9aG+xB32/ZznlwMiAuvbrCXoaC95oH6/vrU2OdI3WSOg4iJcr7347k4EFfir71jPg/pR4piEFA6KxrCWycJKq7Z+G+UVIaTB6QIB1FUqgdSPsA+opEaHI2TqcIOSfjcUnCfMfwVceWD8Se4UC6PIh8s/irkHeb8H9K5KwAD44nq5YQ6YPRKlt8X7UPVXSpoy1cvvudHVT4MyCjqMPAjkg/HDYBHUGPfHzUCxebL7SPmru/sAft8lQaka3Py+KAgAbeQcgSFDpJZ5l6kWXZ+cn2JyqSjO6xzh9qHLTLL5CeviiDc8EEsGauyB1SHvAq5CcpXsQUuTHWHsXphomsS+7L8+ULkbIg+iJUq3arLnMRyomdtv0p+PpU7NzAejh9F8LmIHyeNAlVoXa9Rh/gfYagELYK92H5q7Hpg9ofK1mF3APvl8vRiTIgj1GzU5dtT9TVObYvpCSPNhT1uaifTMvR78S53sj4XKVYV9irl1TD4v8KTIdD+2lzVuNfgj4VyI8A/HmyCQ3GpRN5jrqPUqWONuH2kX0udTCA6XrsgesPcgPM+wveZjqY/OKun3QtJ7xQL8gB8n9CrluCfwbfFRyNgIPjz6fWel78C+snKpR60OT4kPW51KBPJdYsHQp4URHouL+/Zgo3hD3YPmrix5svaRS7ocoH7fNXDnyS95R6UAEFj6Fse6LBHaEfKspBrAvuy/P8A0/8A/9k=;" vertex="1" parent="7">
                    <mxGeometry x="320" y="160" width="297.3" height="275" as="geometry"/>
                </mxCell>
                <mxCell id="10" value="V= (L x W x H) /3" style="text;html=1;align=center;verticalAlign=middle;resizable=0;points=[];autosize=1;strokeColor=none;fillColor=none;fontSize=39;" vertex="1" parent="1">
                    <mxGeometry x="50" y="140" width="320" height="60" as="geometry"/>
                </mxCell>
                <mxCell id="16" value="area= x mm&lt;span style=&quot;color: rgb(189, 193, 198); font-family: arial, sans-serif; font-size: 14px; text-align: left; background-color: rgb(32, 33, 36);&quot;&gt;²&lt;/span&gt;" style="text;html=1;align=center;verticalAlign=middle;resizable=0;points=[];autosize=1;strokeColor=none;fillColor=none;fontSize=20;rotation=0;" vertex="1" parent="1">
                    <mxGeometry x="70" y="580" width="130" height="40" as="geometry"/>
                </mxCell>
                <mxCell id="22" value="length" style="text;html=1;align=center;verticalAlign=middle;resizable=0;points=[];autosize=1;strokeColor=none;fillColor=none;" vertex="1" parent="1">
                    <mxGeometry x="60" y="215" width="60" height="30" as="geometry"/>
                </mxCell>
                <mxCell id="23" value="width" style="text;html=1;align=center;verticalAlign=middle;resizable=0;points=[];autosize=1;strokeColor=none;fillColor=none;" vertex="1" parent="1">
                    <mxGeometry x="55" y="285" width="50" height="30" as="geometry"/>
                </mxCell>
            </root>
        </mxGraphModel>
    </diagram>
</mxfile>